<svg width="234" height="174" viewBox="0 0 234 174" fill="none" xmlns="http://www.w3.org/2000/svg">
<path fill-rule="evenodd" clip-rule="evenodd" d="M190.46 39.7773C190.527 41.0539 190.621 41.5612 191.526 42.3848C191.828 42.659 192.073 42.6428 192.261 42.6305C192.515 42.6136 192.663 42.6039 192.702 43.3283C192.726 43.7846 192.438 44.0985 192.148 44.4142C191.976 44.6013 191.803 44.7891 191.694 45.0077C190.286 47.8386 191.18 51.4678 191.887 54.3413L191.887 54.3423C191.912 54.4397 191.935 54.5363 191.959 54.6319C192.316 56.0855 192.799 57.5705 193.288 59.0725C194.787 63.6805 196.34 68.451 194.457 72.9834C194.375 73.1787 194.299 73.4475 194.217 73.7378C194.045 74.3482 193.846 75.0526 193.516 75.3672C192.875 75.028 192.407 75.1763 192.111 75.8118C191.934 76.0112 191.757 76.2105 191.58 76.4096C190.457 77.4484 189.263 77.8346 187.773 77.2824C184.77 76.1695 184.273 72.678 184.257 69.9293C184.24 66.8997 184.884 63.7269 185.573 60.7755C185.601 60.6589 185.629 60.5408 185.658 60.4217C185.979 59.0859 186.338 57.5948 185.465 56.3641C184.92 55.5959 184.297 55.5564 183.694 55.518C183.303 55.4931 182.92 55.4688 182.572 55.2463C182.104 54.9478 182.203 53.7091 182.307 52.3933C182.413 51.057 182.526 49.6411 182.058 49.0502C180.438 47.0028 179.873 52.0113 179.848 53.0342C179.819 54.1548 179.88 55.4621 180.408 56.4778C180.597 56.8432 180.984 57.1881 181.368 57.532C181.824 57.9392 182.277 58.3448 182.403 58.7817C182.544 59.2716 182.191 60.2715 181.887 61.1325C181.723 61.5942 181.574 62.016 181.523 62.2981C181.297 63.5429 181.219 64.8147 181.154 66.0764C180.935 70.3387 181.603 74.8245 184.535 78.1321C185.82 79.5827 187.998 81.2298 190.036 80.9656C191.371 80.7924 192.711 80.2122 194 79.6544C194.447 79.4607 194.888 79.2698 195.32 79.0996C196.449 83.4378 198.143 87.6392 199.949 91.736C200.52 93.0313 201.078 94.3378 201.637 95.6454L201.637 95.6457C202.615 97.9332 203.594 100.224 204.643 102.462C206.887 107.251 210.034 111.581 213.169 115.894C214.888 118.26 216.603 120.62 218.164 123.048C222.419 129.667 224.804 137.262 225.377 145.075C225.432 145.827 225.375 146.693 225.317 147.571C225.233 148.849 225.148 150.155 225.403 151.179C225.475 151.47 225.546 151.732 225.612 151.976C225.913 153.086 226.112 153.82 225.896 155.268C225.818 155.786 225.722 156.293 225.626 156.796C225.359 158.199 225.099 159.568 225.278 161.038C225.328 161.442 225.41 161.892 225.496 162.365V162.365C225.788 163.964 226.128 165.825 225.417 167.092C225.077 166.729 224.737 166.425 224.41 166.133C223.671 165.473 222.997 164.871 222.532 163.779C222.322 163.286 222.202 162.821 222.091 162.392C221.843 161.428 221.642 160.649 220.572 160.163C220.078 159.939 219.637 159.817 219.217 159.7L219.217 159.7C218.513 159.505 217.868 159.326 217.138 158.711C215.721 157.517 214.757 156.058 214.059 154.349C212.868 151.432 212.696 148.27 213.703 145.275C214.51 142.874 216.867 138.378 220.173 139.987C220.074 139.784 219.982 139.577 219.89 139.371C219.525 138.554 219.166 137.749 218.418 137.225C218.026 136.95 217.54 136.764 217.04 136.573H217.039C216.5 136.367 215.945 136.155 215.472 135.818C214.454 135.092 213.301 134.317 212.164 133.787C211.817 133.625 211.485 133.526 211.138 133.423L211.131 133.421L211.064 133.401L211.003 133.382L210.961 133.37C210.924 133.359 210.887 133.348 210.849 133.336C210.418 133.203 209.681 133.25 209.356 133.271C209.269 133.277 209.212 133.28 209.198 133.278C207.245 132.983 205.068 132.042 203.876 130.625C202.979 129.558 202.185 128.562 201.5 127.341C200.706 125.925 200.348 125.85 199.065 125.582C198.911 125.55 198.745 125.516 198.562 125.475C196.083 124.929 194.509 124.556 192.525 122.715C190.385 120.727 188.803 118.263 187.235 115.823L187.106 115.622C186.308 114.38 185.592 114.124 184.46 113.72H184.459C184.253 113.646 184.033 113.568 183.797 113.477C183.387 113.321 182.904 112.915 182.423 112.51H182.423C181.856 112.034 181.292 111.559 180.852 111.498C180.722 111.48 180.323 111.627 179.926 111.774C179.603 111.893 179.282 112.011 179.112 112.039C178.432 112.149 177.841 112.129 177.16 112.058C175.597 111.893 174.215 111.479 173.164 110.255C169.927 106.485 168.94 97.5975 173.372 94.3901C173.639 94.1969 173.939 94.0365 174.241 93.8758C174.892 93.5279 175.55 93.1768 175.891 92.4829C176.365 91.5156 176.266 89.8382 176.193 88.5942C176.178 88.3402 176.164 88.1045 176.156 87.8964C176.104 86.495 176.038 84.9699 175.829 83.5885C175.733 82.9535 175.661 82.6865 175.402 82.0508C174.973 80.9951 174.797 80.952 174.131 80.788C174.001 80.756 173.853 80.7196 173.681 80.6704C173.363 80.5794 173.082 80.5151 172.828 80.457C171.874 80.2386 171.295 80.1064 170.565 78.9749C169.827 77.8315 169.482 76.3912 169.415 75.0392C169.391 74.5562 169.459 74.0876 169.526 73.6286C169.635 72.8889 169.739 72.175 169.446 71.47C169.14 70.7336 168.719 70.0761 168.295 69.4147C167.757 68.5743 167.214 67.7271 166.898 66.7034C166.861 66.5835 166.819 66.4523 166.775 66.3114C166.245 64.6399 165.286 61.6129 166.404 60.302C166.642 60.0227 166.961 59.8479 167.29 59.6678C167.711 59.4372 168.148 59.1979 168.45 58.7192C168.594 58.4906 168.726 58.2782 168.849 58.0778C169.529 56.9762 169.981 56.2429 171.159 55.253C171.483 54.9809 171.803 54.6665 172.128 54.3474C172.833 53.6541 173.563 52.9368 174.411 52.5755C175.106 52.2791 175.779 52.4241 176.412 52.5607C176.888 52.6634 177.342 52.7611 177.766 52.6629C178.51 52.4902 178.605 51.2446 178.691 50.1192C178.73 49.6144 178.767 49.1339 178.859 48.7852C179.263 47.2665 180.127 45.6831 181.175 44.498C181.315 44.3386 181.47 44.231 181.622 44.1252C181.849 43.9679 182.07 43.8141 182.232 43.4997C182.433 43.112 182.481 42.6346 182.53 42.1544C182.571 41.7521 182.612 41.3475 182.743 40.9924C183.086 40.0612 183.919 38.4581 184.851 37.9477C186.381 37.1093 187.309 37.9567 188.197 38.7667C188.888 39.3975 189.554 40.0058 190.46 39.7773ZM225.696 115.535C228.706 117.261 228.048 121.933 227.649 124.76C227.636 124.858 227.622 124.953 227.609 125.047C227.468 126.06 227.59 127.084 227.711 128.09C227.798 128.817 227.884 129.534 227.868 130.231C227.842 131.395 227.458 131.687 227.022 132.019C226.755 132.222 226.468 132.44 226.232 132.882C226.057 132.424 225.835 131.936 225.606 131.435C225.13 130.391 224.629 129.291 224.477 128.291L224.119 127.355C224.422 127.233 224.583 127.021 224.602 126.72C224.698 126.177 224.72 125.627 224.743 125.074V125.074C224.75 124.896 224.757 124.718 224.767 124.54C224.932 121.518 225.16 118.515 225.696 115.535ZM165.403 76.2354V76.2351V76.2349L165.404 76.2328C165.427 76.1526 165.45 76.0727 165.474 75.9945C165.424 74.7589 165.146 72.2047 163.748 71.6153C161.992 70.8743 161.474 72.9383 161.521 74.3177C161.557 75.4177 162.022 77.4315 163.106 78.0432C164.631 78.9034 165.041 77.4881 165.403 76.2354ZM163.256 111.598V111.598C163.289 113.853 163.321 116.084 164.009 118.264C164.818 120.828 166.174 123.3 167.516 125.618C170.124 130.124 170.747 134.375 171.061 139.528C166.155 137.328 163.479 129.81 161.86 125.108C161.632 124.444 161.401 123.78 161.17 123.115L161.17 123.114V123.114C160.535 121.288 159.899 119.458 159.306 117.622C159.192 117.27 159.067 116.904 158.937 116.525V116.525C158.155 114.245 157.231 111.553 158.027 109.321C158.086 109.364 158.143 109.407 158.2 109.449L158.204 109.452C159.862 110.675 160.615 111.231 161.604 109.002C161.995 109.432 162.386 109.861 162.778 110.29L163.243 110.801C163.248 111.066 163.252 111.331 163.256 111.596V111.596V111.597V111.597V111.597V111.597V111.598ZM156.164 86.1645C155.897 87.3896 155.687 88.6162 155.488 89.8536C155.549 89.9804 155.609 90.1093 155.67 90.2392H155.67C156.335 91.6642 157.06 93.215 158.746 93.5986C159.015 93.6598 159.269 93.627 159.52 93.5945C159.825 93.5548 160.127 93.5156 160.448 93.648C160.88 93.8256 161.192 94.2253 161.499 94.6182C161.7 94.8762 161.9 95.1312 162.129 95.3182C164.802 97.5035 167.792 93.4105 166.333 91.1123C164.566 93.0013 162.579 92.3799 161.94 89.8126C161.332 87.3678 162.226 84.3178 163.514 82.253C161.136 81.1785 159.683 81.25 157.569 82.6952C157.502 82.7414 157.441 82.7826 157.385 82.82L157.385 82.8205C157.128 82.9938 156.988 83.0881 156.895 83.2164C156.783 83.3699 156.739 83.5721 156.642 84.0159V84.0162L156.642 84.0174C156.629 84.0777 156.615 84.1422 156.599 84.2117C156.54 84.4789 156.48 84.7462 156.42 85.0135V85.0137V85.0142C156.334 85.3976 156.248 85.7809 156.164 86.1645ZM195.122 134.607L195.122 134.608C194.775 134.866 194.428 135.124 194.125 135.43C194 135.556 193.8 135.857 193.597 136.16C193.35 136.531 193.101 136.905 192.984 136.969C192.135 137.439 191.394 136.836 190.565 136.079C188.932 134.587 187.913 131.42 187.99 129.23C188.079 126.672 189.886 124.917 192.177 126.741C194.019 128.207 194.552 130.271 195.09 132.36C195.252 132.987 195.415 133.616 195.614 134.232C195.453 134.361 195.288 134.484 195.122 134.607ZM183.797 162.122C185.644 161.885 186.858 162.172 188.674 162.621C189.213 160.382 188.647 157.469 187.163 155.656C186.832 155.251 186.337 154.937 185.871 154.642C185.362 154.319 184.889 154.019 184.705 153.648C184.473 153.18 184.421 152.498 184.369 151.806C184.321 151.181 184.274 150.548 184.091 150.057C183.785 154.114 183.611 158.063 183.797 162.122ZM157.096 158.537C157.678 157.374 158.26 156.212 158.842 155.049C159.221 155.651 160.334 157.222 161.252 156.719C161.673 156.489 161.632 155.489 161.593 154.569C161.568 153.975 161.545 153.415 161.648 153.115C162.883 154.494 163.496 156.12 163.318 157.963C163.254 158.619 163.054 159.539 162.86 160.169C162.787 160.41 162.611 160.724 162.43 161.046C162.092 161.65 161.736 162.286 162.003 162.527C161.785 162.514 161.56 162.509 161.333 162.503H161.333C160.357 162.478 159.339 162.452 158.665 161.847C157.976 161.227 157.478 159.705 157.168 158.757C157.143 158.679 157.119 158.606 157.096 158.537ZM181.298 150.566C181.43 148.909 181.402 147.309 181.346 145.646C179.38 144.32 176.858 144.06 176.784 147.108C176.715 149.963 178.73 152.162 180.552 154.152L180.552 154.152L180.553 154.153L180.554 154.154C180.789 154.411 181.021 154.664 181.245 154.914C181.427 154.134 181.375 153.248 181.324 152.368C181.288 151.751 181.253 151.137 181.298 150.566ZM178.253 118.871C178.209 119.04 178.166 119.227 178.121 119.425C177.816 120.768 177.408 122.563 175.72 121.898C174.192 121.296 173.823 118.866 173.819 117.511C173.817 116.399 174 114.356 175.554 114.289C177.462 114.207 178.143 117.586 178.253 118.871ZM164.529 88.5752C165.02 87.706 165.601 86.6757 166.151 86.8082C165.893 86.2347 165.636 85.6612 165.378 85.0878C165.12 84.5143 164.863 83.9408 164.605 83.3674C164.53 83.7458 164.448 84.1263 164.366 84.5084C164.002 86.1937 163.631 87.9118 163.841 89.6279C164.032 89.4564 164.268 89.0388 164.529 88.5752ZM203.945 164.444C206.676 161.858 208.495 162.801 211.469 164.341C211.614 164.416 211.761 164.492 211.911 164.57C212.648 164.949 213.359 165.116 214.069 165.282C214.623 165.411 215.176 165.541 215.741 165.771C216.387 166.034 216.792 166.714 217.175 167.357C217.553 167.991 217.909 168.589 218.452 168.717C217.122 168.857 215.796 169.038 214.472 169.219H214.472C210.742 169.729 207.023 170.237 203.228 169.822C203.406 169.095 203.385 168.363 203.365 167.635C203.333 166.544 203.302 165.466 203.945 164.444ZM202.689 155.677C205.983 155.507 206.861 150.429 206.837 147.893C206.909 146.053 206.426 143.682 205.012 142.367C204.118 141.535 202.051 140.227 200.811 140.422C197.443 140.951 196.593 147.101 196.919 149.672C197.217 152.018 200.041 155.814 202.689 155.677Z" fill="#75A342"/>
<path fill-rule="evenodd" clip-rule="evenodd" d="M153.278 41.7357C152.702 41.9947 153.801 43.9307 153.972 44.2858C154.418 45.2129 154.962 47.1286 156.019 46.6012C155.105 44.9795 154.191 43.3574 153.278 41.7357ZM18.0933 154.058C17.3232 153.716 16.2933 156.657 16.1561 157.254C15.7733 158.918 16.0936 160.036 17.4246 161.112C16.8737 158.734 17.5337 156.365 18.0933 154.058ZM195.861 28.1441C194.903 26.8998 193.52 24.5895 191.585 25.8125C190.82 26.2958 190.232 27.8448 189.761 28.6015C189.021 29.7894 188.304 30.933 187.741 32.2119C188.698 31.8183 189.262 30.9625 190.117 30.4946C190.702 30.1751 191.235 30.1443 191.798 29.9114C193.043 29.3969 194.748 28.8923 195.861 28.1441ZM39.7128 150.743C40.231 152.773 40.7102 154.797 41.1111 156.853C41.3823 158.245 42.2934 160.21 41.818 161.572C43.0497 161.406 44.2814 161.24 45.5131 161.074C44.5993 158.993 44.1185 156.772 43.8472 154.524C43.681 153.148 43.894 152.756 42.8582 151.99C42.0561 151.397 40.6439 151.112 39.7128 150.743ZM32.9002 73.0451C35.2684 75.4177 37.3395 78.122 39.8561 80.3326C41.1639 81.4814 42.5044 82.5978 43.8464 83.7058C44.9844 84.6452 46.7942 86.7161 48.2752 87.0036C48.4583 86.247 48.8912 85.007 48.7752 84.2309C49.2074 83.7835 49.0732 83.4567 48.3728 83.2502C47.9442 82.9204 47.5205 82.5853 47.1009 82.2439C45.4547 80.8687 43.8968 79.3748 42.3369 77.9037C40.7863 76.4416 39.3518 74.9118 38.0057 73.2598C37.2965 72.3899 36.8818 71.5177 35.7187 71.2619C34.337 70.9583 33.8772 72.0366 32.9002 73.0451ZM80.2297 161.138C80.1629 162.427 83.3306 163.217 84.293 163.295C86.8946 163.503 88.584 162.362 89.4793 160.11C91.3431 155.423 94.3272 151.293 95.5753 146.365C95.9455 144.903 96.266 144.237 94.9468 143.492C94.4053 143.186 92.9954 142.505 92.4068 142.894C91.8464 143.264 91.3874 144.93 91.0272 145.536C90.455 146.498 89.8045 147.412 89.1834 148.343C86.2776 152.697 83.3495 156.937 80.2297 161.138ZM42.6362 96.5907L54.798 103.551C55.3051 101.799 55.5384 99.9715 56.0138 98.2053C56.3522 96.9499 57.2229 95.1767 57.1679 94.0746C57.0857 92.4293 55.8125 90.2451 55.2575 88.6766C54.5658 86.7223 53.874 84.7674 53.1823 82.8128C52.2455 83.7094 51.1669 84.3357 51.1554 85.5039C51.149 86.1716 51.5937 86.5883 51.3359 87.3447C51.1549 87.8754 50.3853 88.58 50.0135 88.9744C48.9278 90.1275 48.9618 90.1851 47.8208 89.1069C46.0927 91.6017 44.3643 94.0962 42.6362 96.5907ZM56.0161 129.225C56.1902 127.548 56.4137 125.94 56.7905 124.295C57.0222 123.284 58.0007 121.208 57.6789 120.256C57.4423 119.556 56.0363 118.948 55.4887 118.567C53.9045 117.465 52.3574 116.306 50.789 115.182C49.4137 114.197 48.0179 113.234 46.6685 112.213C45.4186 111.268 44.4752 110.092 42.9626 109.686C41.6393 109.331 39.9601 109.563 38.5894 109.517C36.7499 109.456 34.882 109.436 33.0444 109.526C26.8772 109.828 19.9684 109.396 14.0352 111.118C11.231 111.931 9.42329 112.41 7.85571 115.069C6.04287 118.143 4.49398 121.338 3.17524 124.659C2.98272 125.144 2.5475 125.844 2.56414 126.374C2.59588 127.386 2.95763 127.153 3.92716 127.73C4.97477 128.353 6.00165 129.093 7.00241 129.795C8.71848 130.999 10.849 132.256 12.6294 133.195C14.7715 134.324 16.9295 135.337 19.1084 136.475C20.4891 137.196 21.9182 137.785 23.2725 138.577C24.7428 139.437 26.389 139.682 27.974 140.354C32.8818 142.434 37.6316 144.356 42.4478 146.729C47.1487 149.044 51.9037 151.002 56.7135 153.045C62.9298 155.685 69.0846 158.127 75.5677 159.952C76.0424 160.086 77.0403 160.558 77.5091 160.536C78.5114 160.49 78.7384 159.757 79.3406 158.931C80.5239 157.307 81.6637 155.653 82.7955 153.993C85.2505 150.393 87.6511 146.753 90.2942 143.287C82.8045 141.195 75.8598 137.336 69.2759 133.375C68.9955 134.164 68.7723 135.911 67.8737 136.174C66.7626 136.501 65.9554 134.96 65.4574 134.251C64.9861 135.426 64.1796 139.388 62.6712 139.301C60.587 139.181 60.9549 135.898 60.6953 134.595C59.5463 136.124 58.2147 137.881 56.6533 135.531C55.5711 133.901 55.6912 131.042 56.0161 129.225ZM142.795 110.501C141.829 110.199 140.869 109.93 139.925 109.592C139.676 109.064 139.264 108.904 138.688 109.112C138.216 109.154 137.756 109.096 137.31 108.936C135.337 108.599 133.151 108.161 131.266 107.591C129.587 107.084 128.004 106.636 126.298 106.255C125.285 106.029 120.773 104.751 120.106 105.503C119.901 105.735 120.254 108.539 120.204 109.039C120.116 109.928 120.072 111.392 119.51 112.132C119.294 112.416 118.472 112.73 118.175 112.951C117.21 113.67 116.318 114.562 115.359 115.307C113.263 116.933 111.222 118.62 109.083 120.192C107.572 121.304 105.842 121.854 104.163 122.661C105.358 122.875 107.695 121.725 108.9 121.368C110.462 120.906 111.994 120.392 113.591 119.969C116.866 119.101 120.22 118.121 123.548 117.197C125.592 116.63 127.751 116.039 129.732 115.287C130.611 114.954 131.301 114.179 131.882 114.968C132.345 115.597 131.785 116.426 131.428 116.892C129.351 119.614 123.709 120.276 120.689 121.405C117.281 122.679 113.918 124.02 110.409 124.915C106.311 125.96 101.862 126.76 98.0433 128.596C94.8748 130.118 91.2855 130.709 87.9169 131.602C84.7533 132.441 81.0016 132.61 78.0116 134.034C79.3032 135.055 81.2141 135.588 82.7195 136.274C84.5623 137.114 86.4243 137.881 88.2469 138.771C89.0226 139.15 89.8344 139.713 90.6193 140.028C91.6158 140.428 91.488 140.217 92.5172 140.136C94.1191 140.01 96.2803 139.722 97.5817 140.889C99.1513 142.297 98.1567 143.84 98.3871 145.563C98.5453 146.744 98.6257 146.554 99.936 146.735C101.142 146.9 102.347 147.094 103.537 147.352C105.005 147.671 106.509 148.205 107.939 148.666C110.158 149.381 110.399 150.222 112.711 149.299C119.297 146.672 126.108 144.513 132.735 142.027C135.788 140.882 138.854 138.674 141.727 137.014C145.414 134.886 148.747 132.583 151.243 129.038C152.381 127.423 153.568 124.694 153.328 122.689C153.115 120.895 151.789 118.902 150.934 117.359C149.843 115.39 148.882 114.626 147.213 113.318C146.052 112.409 144.258 110.489 142.795 110.501ZM69.4533 125.742C69.5554 126.732 68.9774 130.813 69.5501 131.441C70.5293 132.515 72.9313 131.261 73.8606 130.942C76.8795 129.903 80.3885 130.13 83.4627 129.308C86.445 128.51 89.3621 127.476 92.361 126.663C93.9698 126.227 95.4967 125.543 97.0791 125.024C98.8408 124.445 100.807 124.128 102.441 123.258C102.239 122.755 95.17 123.965 94.3666 124.031C91.5763 124.257 88.9494 123.827 86.1992 123.321C80.1332 122.204 74.4177 119.556 68.43 117.838C68.7106 120.602 76.4817 121.152 75.5559 124.36C75.2976 125.254 71.8212 126.715 70.6714 126.154C68.3355 125.014 71.1929 123.41 72.3573 123.01C70.5849 121.993 68.8888 120.889 67.271 119.636C65.5391 118.294 64.7938 116.412 63.8655 114.47C61.9252 110.409 57.3333 108.046 53.7665 105.518C49.9096 102.785 45.8029 100.461 41.9483 97.7335C41.2604 97.2467 40.9391 97.4701 40.6974 96.5812C40.4388 95.6293 41.3889 94.4195 41.85 93.6936C43.062 91.7846 44.4736 89.9778 46.0748 88.3799C44.01 86.9734 41.7796 85.8124 39.8433 84.2203C37.8807 82.6065 36.2566 80.6366 34.5251 78.789C31.7592 84.813 27.8826 90.4001 24.8383 96.3078C23.6358 98.6411 23.0001 102.17 24.8288 104.431C26.7533 106.811 30.3419 105.885 33.0584 106.011C35.9255 106.144 38.541 106.469 41.3689 107.283C42.6483 107.652 43.8129 107.543 45.0425 108.134C46.4846 108.828 47.903 109.718 49.2749 110.54C51.9731 112.157 54.4938 114.18 57.0417 116.025C58.0867 116.781 63.7536 121.265 59.2713 120.573C59.2713 124.77 58.5368 129.067 58.1512 133.244C59.2142 131.973 59.9723 130.682 60.6154 129.155C60.9979 128.247 61.0027 125.93 62.2774 126.479C64.195 127.305 62.7014 133.377 62.7014 135.019C63.1766 134.1 63.5094 133.11 63.8514 132.137C64.1105 131.399 64.4344 129.307 64.9751 128.812C66.7851 127.157 67.0388 131.673 67.0388 132.615C67.6251 130.95 67.7329 129.173 67.7918 127.414C67.8148 126.72 67.6435 125.641 67.8186 124.969C68.11 123.85 68.0754 123.923 69.2462 123.45C69.3153 124.214 69.3844 124.978 69.4533 125.742ZM125.368 161.156C125.512 162.576 126.061 163.604 125.128 164.881C126.931 164.752 128.706 164.593 130.512 164.639C131.962 164.676 134.13 165.008 135.483 164.386C136.034 164.133 136.222 164.569 136.505 164.085C136.774 163.625 136.142 162.1 136.066 161.721C135.701 159.905 135.524 158.042 135.192 156.214C134.965 154.958 134.297 152.488 135.137 151.301C136.372 149.554 136.916 152.015 137.238 153.107C138.298 156.706 138.237 160.124 138.237 163.822C139.834 163.822 141.932 163.124 143.472 162.703C145.596 162.122 147.864 161.525 149.922 160.766C151.863 160.051 153.573 159.008 154.8 157.328C155.718 156.071 157.753 152.971 157.248 151.581C156.628 149.878 153.672 148.707 152.093 148.519C150.045 148.276 147.946 148.688 145.851 148.861C143.607 149.046 141.43 149.546 139.211 149.787C137.055 150.02 134.162 150.74 132.068 150.201C132.013 151.063 132.734 152.222 132.984 153.1C133.313 154.251 133.607 155.412 133.874 156.579C134.16 157.828 135.93 162.318 134.32 163.215C132.431 164.269 131.529 159.757 131.294 158.657C130.732 156.035 130.25 153.415 130.838 150.778C128.426 150.343 125.517 150.99 123.029 151.161C123.956 154.428 124.554 157.85 125.368 161.156ZM21.4837 162.577C22.3224 162.95 23.475 162.75 24.3867 162.821C25.8114 162.933 27.2507 163.191 28.6849 163.145C30.8733 163.075 33.1675 162.798 35.3577 162.548C34.1084 160.293 33.3503 158.157 33.1944 155.573C33.1383 154.644 32.646 148.886 34.3577 149.132C35.1836 149.251 35.0082 154.168 35.1685 155.074C35.4015 156.388 35.702 157.733 36.0679 159.019C36.3334 159.952 37.2366 161.35 37.0052 162.359C38.1094 162.18 39.2138 162.001 40.3183 161.821C39.4596 160.108 38.8323 158.572 38.5108 156.661C38.3554 155.739 38.4545 154.591 38.1531 153.714C37.9632 153.162 37.53 152.643 37.4721 152.18C37.4053 151.646 37.9901 150.333 37.7737 149.858C37.5612 149.392 36.0817 148.96 35.5633 148.703C34.1345 147.994 33.297 147.815 31.6957 148.222C28.6068 149.008 23.7402 149.566 21.4366 151.685C19.1545 153.784 18.324 160.866 21.4837 162.577ZM156.383 60.2358C157.238 60.1392 158.084 60.0795 158.944 60.0352C157.688 58.2666 156.547 56.4181 155.506 54.5152C154.996 53.583 154.514 52.636 154.053 51.6786C153.523 50.5801 153.538 49.8629 152.387 49.6446C150.794 49.3425 148.663 49.9462 147.024 49.8775C145.758 49.8242 142.915 48.6317 141.895 49.0639C142.825 50.9719 142.078 53.9405 142.114 55.9943C142.151 58.0368 141.897 60.0111 141.538 62.0252C143.711 62.0252 146.431 61.2744 148.624 60.939C151.177 60.5485 153.781 60.5282 156.383 60.2358ZM121.891 165.086C122.727 164.979 123.523 164.946 124.368 164.946C122.465 161.857 121.027 158.403 121.011 154.723C121.009 154.242 121.587 151.475 121.396 151.246C121.023 150.798 119.476 151.151 119.052 151.194C117.318 151.367 115.391 151.354 113.759 151.979C112.633 152.41 112.621 152.15 112.173 153.476C111.908 154.261 111.718 155.157 111.712 155.982C111.702 157.65 112.233 159.598 112.92 161.099C113.573 162.528 114.606 164.061 116.027 164.828C117.664 165.713 119.971 165.187 121.891 165.086ZM139.197 50.3464C138.868 49.116 139.011 49.3937 137.916 49.241C137.686 49.209 135.179 49.261 135.035 49.4081C134.869 49.5777 134.932 52.083 134.91 52.3697C134.836 53.3524 134.726 54.3325 134.619 55.3121C134.185 59.289 133.362 63.1388 132.744 67.0829C134.27 66.1353 136.475 67.4273 137.779 66.4015C138.809 65.591 138.654 62.9974 138.731 61.853C138.988 58.0227 139.076 54.1829 139.197 50.3464ZM194.29 45.7023C194.153 45.9229 194.016 46.1436 193.879 46.3642C194.411 46.706 197.53 43.2285 198.224 42.6064C199.147 41.778 200.609 40.6718 201.026 39.4605C201.51 38.053 201.034 35.8308 200.917 34.3754C200.833 33.3338 201.011 31.8932 200.162 31.1654C199.381 30.4959 197.458 30.5138 196.533 30.6571C193.758 31.087 192.089 33.3712 190.688 35.5477C192.11 35.3727 197.125 33.0814 197.707 34.3206C198.554 36.1209 193.287 37.7306 192.766 39.3104C193.844 39.6914 196.222 38.2134 195.553 40.6725C195.439 41.0167 195.24 41.3016 194.956 41.5274C194.464 41.7019 194.347 42.0306 194.607 42.5139C194.386 43.4771 194.431 44.6958 194.29 45.7023ZM226.232 132.882C226.247 133.466 226.301 134.024 226.777 134.437C227.835 131.085 228.165 127.733 228.603 124.247C229.041 120.761 229.508 117.189 229.577 113.706C229.655 109.803 229.287 105.557 228.656 101.7C228.162 98.6852 227.78 94.9753 225.985 92.4093C227.005 99.0591 226.687 105.364 226 112.037C225.635 115.58 225.119 119.096 224.883 122.655C224.82 123.594 224.8 124.546 224.719 125.484C224.671 126.036 224.124 127.084 224.119 127.355C224.092 128.862 225.703 131.499 226.232 132.882ZM171.968 127.703C172.816 129.657 173.781 131.581 174.289 133.658C174.826 135.852 174.595 137.894 174.681 140.117C174.824 143.805 174.528 147.47 174.58 151.163C174.624 154.311 174.503 157.379 174.535 160.494C174.555 162.464 174.447 164.426 174.454 166.395C174.454 166.389 174.532 168.162 174.397 168.252C173.789 168.656 173.125 168.083 172.939 167.531L171.138 169.57C172.082 169.332 173.243 168.837 174.213 168.793C174.585 168.656 174.955 168.652 175.323 168.781C175.689 169.003 175.96 169.311 176.137 169.707C178.679 170.249 180.205 167.984 180.662 165.959C181.652 161.565 181.296 157.228 181.224 152.792C181.068 143.155 182.598 133.576 182.453 123.938C182.425 122.073 182.354 120.23 182.634 118.369C183.154 114.911 183.921 118.076 184.044 119.708C184.415 124.612 185.059 129.673 184.705 134.607C184.386 139.053 184.415 143.54 184.194 147.999C183.959 152.739 183.58 157.378 183.798 162.122C185.069 161.959 189.16 161.716 189.586 163.504C189.957 165.064 188.462 164.487 187.686 164.421C186.427 164.314 185.197 164.61 183.821 164.363C183.922 166.46 184.211 169.273 182.338 170.69C181.417 171.386 179.892 172.015 178.815 172.426C177.76 172.829 175.974 173.721 174.875 173.672C174.098 173.638 173.798 173.219 172.945 173.285C171.679 173.385 170.584 174.233 169.242 173.532C166.697 172.205 167.948 168.344 169.555 166.796C169.969 166.397 170.435 165.961 170.99 165.766C171.255 165.674 172.36 165.785 172.488 165.647C172.958 165.135 172.371 162.145 172.308 161.577C171.978 158.6 171.619 155.56 171.483 152.57C171.356 149.758 171.214 146.941 171.118 144.129C171.097 143.516 171.368 142.257 171.112 141.722C170.686 140.832 168.815 140.266 168.004 139.852C168.727 146.94 169.789 154.558 167.172 161.31C166.653 162.65 166.07 164.564 164.752 165.31C163.51 166.013 160.585 165.914 159.097 165.997C157.497 166.087 155.931 165.713 155.049 164.209C154.356 163.026 154.771 161.606 156.196 161.09C157.048 160.781 157.215 160.98 157.962 161.347C158.124 161.611 158.237 161.894 158.303 162.197H158.877C159.656 162.544 162.766 162.933 163.622 162.378C164.613 161.736 164.828 160 165.251 158.969C166.036 157.053 166.244 155.497 166.529 153.449C166.975 150.243 166.523 146.525 166.532 143.185C166.534 142.244 166.538 141.303 166.539 140.363C166.541 138.942 166.665 138.951 165.855 137.928C164.634 136.386 163.242 134.811 161.936 133.333C162.644 137.65 162.354 142.196 162.073 146.497C161.915 148.914 161.588 151.375 161.439 153.76C161.393 154.476 161.908 156.452 161.077 156.768C160.233 157.09 159.183 155.591 158.842 155.049C156.983 158.764 154.763 162.346 150.926 164.268C148.953 165.256 146.899 165.701 144.746 166.089C142.751 166.448 140.908 167.103 138.941 167.412C134.871 168.051 131.122 168.142 127.027 168.002C123.163 167.871 119.463 168.585 115.611 167.686C114.108 167.335 112.589 166.69 111.561 165.538C111 164.91 110.752 163.921 110.187 163.341C110.059 162.591 109.619 162.36 108.865 162.647C108.391 162.669 107.919 162.653 107.449 162.6C103.586 162.397 99.2924 162.623 95.5489 161.519C94.128 161.1 92.5418 160.409 93.2507 158.629C93.8702 157.074 95.5799 157.546 96.9818 157.682C101.054 158.077 105.063 158.797 109.194 159.16C109.061 156.999 109.176 154.796 110.022 152.775C107.156 152.415 104.185 151.872 101.458 150.956C100.616 150.673 99.7778 150.379 98.9424 150.077C97.5655 149.578 97.8518 149.449 97.0543 150.319C96.0522 151.412 95.4388 153.691 94.7128 155.012C93.8958 156.497 93.1119 157.966 92.4235 159.517C91.7719 160.985 91.286 162.95 90.2932 164.215C88.1094 166.998 83.0656 167.239 80.0974 166.146C78.6435 165.61 78.1186 165.526 77.2374 164.222C76.272 162.793 76.0321 162.71 74.2536 162.516C71.0419 162.165 68.0107 161.358 65.002 160.244C61.8233 159.067 58.5593 158.15 55.3899 156.879C52.4229 155.689 49.5553 154.493 46.4854 153.564C46.1211 155.881 47.6306 158.495 47.6306 160.884C49.4168 160.705 51.0824 160.548 52.853 160.264C53.4843 160.163 57.4621 159.269 57.8502 159.796C59.4679 161.994 52.107 163.028 50.9565 163.318C47.2696 164.249 43.51 165.114 39.7998 165.834C36.0129 166.569 32.3211 167.3 28.4768 167.432C21.9717 167.656 12.9991 167.279 13.3097 158.725C13.4315 155.373 14.8112 151.736 17.4512 149.55C19.0938 148.19 21.1422 147.442 23.1504 146.826C23.8923 146.599 27.8009 146.067 27.9197 145.775C26.8183 144.985 24.9358 144.779 23.6291 144.17C22.3834 143.589 21.0687 143.373 19.7935 142.788C17.2454 141.619 14.7843 140.189 12.4282 138.744C10.5544 137.593 8.65986 136.324 6.93483 134.957C5.56412 133.871 4.25051 132.826 3.15476 131.585C2.58129 130.936 1.56619 130.36 1.1069 129.801C-0.505998 127.836 1.19497 123.927 1.88186 121.64C2.88518 118.297 4.22414 114.739 6.19878 111.843C8.0147 109.18 10.0393 107.386 13.2966 106.762C16.303 106.186 19.326 106.003 22.4008 105.842C21.8841 103.875 21.1568 102.486 21.3414 100.329C21.5155 98.2937 22.5421 96.2717 23.3478 94.4183C24.8457 90.9731 26.2589 87.6009 28.3076 84.4289C29.4335 82.6857 30.6982 81.0309 31.9274 79.3605C32.1255 79.0911 33.3575 77.8591 33.3104 77.5122C33.2635 77.1673 32.0264 76.1172 31.837 75.8766C30.5648 74.2602 29.6854 72.5198 31.1793 70.7899C31.9581 69.888 34.2479 68.0666 35.35 69.2125C36.5418 66.8023 38.6263 65.159 40.2491 63.1086C42.2724 60.5518 44.2043 57.9561 46.0983 55.2781C47.9841 52.6116 49.5246 49.7471 52.0243 47.5982C54.81 45.2037 57.4324 45.4107 60.8537 46.4344C61.0491 45.1135 61.3207 45.2892 62.5972 44.8483C63.5634 44.5144 64.5025 44.1182 65.4525 43.7413C66.4623 43.3403 67.4843 43.1127 68.5165 42.7976C69.8916 42.3778 70.0982 42.5149 70.3217 40.7276C70.592 38.568 69.6686 36.2846 69.0731 34.2503C68.7792 33.2466 68.5749 31.9972 67.9136 31.322C67.3153 30.7114 66.2546 30.4334 65.6003 29.7582C59.9623 23.9412 59.8735 11.5211 65.8791 6.1149C67.0462 5.06405 68.0089 3.65036 69.4617 2.94083C71.057 2.1616 73.1612 1.5315 74.9182 1.1643C78.5398 0.407876 82.6015 0.647975 85.4642 3.19605C86.8761 4.45266 87.7371 6.45006 88.2184 8.23427C88.6782 9.93854 88.5797 12.8192 86.8367 10.1853C85.7376 8.52408 84.7827 6.82981 82.9223 6.00805C81.2597 5.27391 79.2295 4.87751 77.4182 5.0333C73.1494 5.40024 69.6901 6.6548 66.7352 9.81708C63.4679 13.3135 63.3018 18.8958 64.0061 23.3419C64.6266 22.0268 65.047 19.9446 66.7869 19.6935C68.237 19.4841 70.5229 21.3373 69.7446 22.9326C66.2134 22.0317 65.1807 27.3764 68.2341 27.6982C69.1586 27.7956 70.3294 26.1485 71.1806 26.5321C72.7725 27.249 70.6392 29.7197 70.2185 30.5333C69.995 30.6709 69.7715 30.8085 69.548 30.9464C69.7682 31.4583 69.9904 31.9695 70.2149 32.4797C70.4871 33.1303 70.7462 33.7824 70.9853 34.4461C71.5672 36.0612 72.1706 37.7265 72.5214 39.409C72.8778 41.1197 73.0629 43.1173 72.2203 44.7245C71.2943 46.491 70.4221 46.2737 69.7106 44.5933C67.8483 45.7682 65.9758 47.0209 63.7867 47.4845C66.0823 51.3394 69.0542 54.6534 73.5227 55.8659C77.3099 56.8937 82.0771 56.856 85.6908 55.1558C89.4407 53.3916 91.5041 49.2682 91.0576 45.1657C90.913 43.8371 90.1403 39.2222 91.9783 42.5605C92.9862 44.3914 93.0602 47.3612 92.8303 49.3689C91.7312 58.9723 82.005 62.5651 73.6181 60.2533C69.3158 59.0671 66.2155 55.8923 63.9072 52.155C63.3688 51.2835 62.8763 50.3841 62.3952 49.4798C62.2029 49.1185 62.0337 48.614 61.7772 48.297C60.7718 47.055 61.7595 47.7471 60.6922 47.5916C59.0404 47.3512 56.4411 48.6173 55.2145 49.6205C51.8866 52.3421 50.0432 56.6956 47.489 60.1257C44.7696 63.7771 41.3159 67.027 37.8516 69.9405C41.7704 73.9581 45.6889 77.9752 49.6078 81.9926C50.4173 81.0957 51.9562 79.0458 52.1715 77.8466C52.2977 77.1437 51.7312 74.8304 53.4736 75.8599C54.65 76.5554 55.0962 79.5311 55.4631 80.7485C56.0299 82.6288 56.9843 84.3995 57.6013 86.2603C58.7457 89.7129 60.1556 93.135 61.3279 96.6122C61.8046 98.0262 63.1638 99.7809 61.8578 100.978C59.8729 102.797 59.2828 99.2159 58.7572 97.8478C58.0253 98.8664 58.1203 100.518 57.7429 101.706C57.5125 102.431 56.8108 103.561 56.8341 104.276C56.8737 105.498 57.9825 105.862 58.9818 106.545C60.8407 107.816 62.7483 109.057 64.451 110.537C65.1615 111.155 65.8151 111.78 66.3335 112.574C66.7861 113.268 66.9223 114.831 67.4226 115.314C68.077 115.945 70.4958 115.505 71.773 115.643C73.9059 115.872 76.0674 116.631 78.1381 117.177C81.8022 118.142 85.5707 119.532 89.4081 120.047C93.1767 120.553 96.713 120.302 100.469 119.628C102.521 119.259 104.724 118.819 106.596 117.831C108.753 116.694 110.665 114.875 112.679 113.501C113.581 112.886 114.503 112.304 115.425 111.722C116.657 110.943 116.335 111.111 116.415 109.873C116.508 108.441 117.105 105.705 116.149 104.43C115.75 103.898 114.525 103.509 113.948 103.122C113.11 102.558 112.358 101.904 111.459 101.45C110.478 100.956 110.449 101.347 109.994 100.133C109.58 99.0311 109.307 97.8765 108.928 96.7626C107.19 91.6678 106.742 86.4935 106.022 81.1736C105.687 78.7027 104.867 75.3403 105.796 72.9331C107.088 69.5853 108.17 74.2674 108.442 75.4674C109.676 73.3524 110.385 71.0001 111.668 68.9119C112.417 67.6945 112.783 67.0724 113.204 65.7384C113.375 65.1982 113.444 64.7495 113.805 64.3009C114.568 63.3517 114.681 63.8927 115.475 63.8694C117.973 63.7961 120.428 63.8604 122.928 63.9762C124.31 64.0403 125.692 64.0741 127.084 64.069C127.762 64.0664 128.448 64.0333 129.125 64.0723C129.49 64.0685 129.853 64.0956 130.215 64.154C130.961 64.5025 131.246 64.2022 131.069 63.2528C131.719 61.893 131.675 59.7231 131.905 58.2395C132.137 56.7461 132.351 55.2501 132.545 53.7511C132.648 52.9499 133.516 49.9265 133.055 49.2682C132.599 48.6155 130.22 48.7618 129.517 48.6447C124.838 47.8663 120.485 45.9365 116.109 44.3555C113.954 43.5773 111.909 42.5264 109.843 41.5717C108.767 41.0746 107.75 40.0509 106.616 39.7321C105.186 39.3298 103.286 39.973 101.86 40.2151C99.1423 40.6766 96.521 41.0807 93.7637 41.2309C92.7896 41.2839 90.9366 41.5573 90.0577 40.8873C88.2922 39.5415 90.3024 38.7546 91.4563 38.5847C96.5604 37.8334 101.649 37.4016 106.792 37.088C107.033 37.0734 107.917 36.8937 108.21 36.9865C108.88 37.1982 108.61 37.4436 109.011 37.6619C109.755 38.0663 110.603 38.3641 111.547 38.6149C114.24 39.3309 116.953 40.5321 119.655 41.4761C124.518 43.1745 130.328 45.8824 135.191 45.4063C136.391 45.289 137.378 45.1388 138.633 45.2605C140.102 45.4033 140.96 46.1577 142.089 46.377C143.601 46.6707 145.765 46.45 147.357 46.5064C148.875 46.5602 150.395 46.6307 151.913 46.6307C150.58 43.9463 149.767 41.4259 149.018 38.5429C148.609 36.9706 147.994 35.5426 148.26 33.8867C148.386 33.1052 148.698 32.3708 149.038 31.6649C149.552 30.5992 149.698 30.8221 149.88 29.6418C150.131 28.0175 149.771 26.3048 149.969 24.6756C150.171 23.0036 151.433 21.5133 151.574 19.9149C151.649 19.0644 151.173 18.3703 151.316 17.4529C151.443 16.6324 151.928 15.7722 152.364 15.0814C153.38 13.4716 154.616 12.5589 156.332 11.9031C157.711 11.3761 159.472 10.8925 160.865 11.7461C162.287 12.6168 162.185 14.3692 162.866 15.6479C164.331 18.3974 167.711 20.8545 170.405 22.2587C172.88 23.5487 175.546 24.3635 178.2 25.2047C179.816 25.7167 181.476 26.0819 183.064 26.6669C184.206 27.0881 186.069 28.1098 187.233 27.4891C188.247 26.9482 189.43 25.2975 190.434 24.5311C191.608 23.6345 193.174 22.7594 194.652 23.5405C196.131 24.3212 196.01 27.1993 197.16 27.7405C197.56 27.9291 198.75 27.3767 199.296 27.4638C200.179 27.6042 200.786 28.1508 201.315 28.8237C203.291 31.3382 203.902 35.3266 203.989 38.4263C204.032 39.9745 203.994 41.9002 203.05 43.2147C201.948 44.7481 199.862 44.786 198.448 45.865C197.316 46.7281 196.515 48.1389 195.367 49.0586C194.659 49.6254 194.386 49.19 194.093 50.0733C193.903 50.6478 194.288 51.7686 194.402 52.3244C195.105 55.7534 196.422 58.9162 197.672 62.1828C198.261 63.722 198.76 65.2615 199.029 66.8927C199.205 67.9631 199.002 68.8989 199.087 69.9287C199.148 70.6618 199.459 71.295 199.391 72.0468C199.246 73.6388 198.382 75.0451 197.832 76.4454C197.206 78.0418 198.066 80.8064 198.697 82.4574C200.209 86.4128 202.334 90.4088 204.223 94.2092C206.078 97.9424 207.458 101.918 209.619 105.504C211.718 108.987 214.188 112.397 216.576 115.691C217.905 117.524 219.315 119.267 220.519 121.189C220.782 121.609 222.579 125.094 223.044 124.973C222.473 118.891 223.051 112.566 223.306 106.488C223.626 98.8802 222.658 91.9886 220.519 84.7262C220.019 83.0283 219.574 81.291 219.222 79.556C218.976 78.3411 218.28 77.3428 219.987 77.874C222.813 78.7532 225.301 84.0933 226.738 86.4176C229.956 91.6237 232.643 98.5663 233.004 104.673C233.358 110.666 233.053 116.401 232.305 122.306C231.935 125.219 231.339 128.467 230.427 131.253C229.958 132.686 229.394 134.17 228.77 135.544C228.506 136.123 227.927 136.778 227.827 137.415C227.669 138.425 228.408 139.788 228.594 140.786C229.198 144.051 229.337 147.434 229.131 150.748C229.021 152.525 228.776 154.114 228.196 155.785C227.458 157.914 227.801 159.541 228.108 161.735C228.437 164.084 228.752 169.423 226.312 170.757C226.14 170.74 225.967 170.722 225.794 170.704C225.358 170.201 224.971 170.231 224.633 170.794C224.002 171 223.386 171.53 222.721 171.759C221.179 172.289 219.514 172.321 217.905 172.554C214.757 173.01 211.618 173.815 208.525 173.913C204.862 174.028 201.04 173.884 197.459 173.242C196.718 173.109 195.853 172.757 195.113 172.69C194.108 172.598 193.403 173.267 192.365 173.11C190.757 172.866 189.742 171.163 189.636 169.768C189.301 165.321 191.766 163.282 195.794 162.492C193.192 158.762 190.195 155.703 189.502 150.913C188.821 146.2 190.299 140.746 192.984 136.97C195.562 133.345 199.96 130.922 204.496 131.842C206.601 132.269 216.533 135.203 214.613 138.532C214.187 137.01 211.569 137.304 210.304 137.084C208.205 136.719 206.107 136.169 203.978 136.283C199.79 136.505 195.742 138.985 193.714 142.738C191.376 147.065 192.443 151.383 195.258 155.078C197.831 158.456 200.484 162.005 203.945 164.444C203.276 165.509 203.518 165.843 202.189 165.652C201.277 165.521 200.423 164.809 199.501 164.632C197.589 164.264 194.579 165.833 193.398 167.401C192.699 168.327 192.725 168.785 194.013 169.356C194.962 169.777 196.458 169.559 197.478 169.651C200.016 169.877 202.603 169.953 205.149 169.944C209.556 169.928 213.655 169.22 218.017 168.762C219.95 168.559 221.972 168.793 223.863 168.081C226.425 167.117 225.797 164.285 225.465 161.99C225.136 159.718 225.471 157.955 225.828 155.704C225.983 154.727 226.272 153.598 226.067 152.614C225.824 151.445 225.389 150.928 225.444 149.624C225.642 144.985 225.06 140.098 223.832 135.62C221.163 125.894 214.647 118.218 209.213 109.951C207.678 107.616 206.064 105.404 204.842 102.875C203.685 100.48 202.888 97.9459 201.738 95.5437C199.205 90.2489 196.801 84.7948 195.321 79.0996C193.643 79.7605 191.835 80.7326 190.036 80.9658C187.999 81.23 185.82 79.5829 184.535 78.1323C181.604 74.8247 180.935 70.339 181.154 66.0766C181.219 64.8149 181.298 63.5432 181.523 62.2983C181.67 61.4904 182.62 59.5348 182.403 58.7819C182.172 57.9763 180.822 57.276 180.408 56.4781C179.88 55.4623 179.82 54.155 179.848 53.0344C179.874 52.0115 180.438 47.003 182.058 49.0501C182.987 50.2229 181.63 54.6446 182.572 55.2466C183.419 55.788 184.587 55.1264 185.466 56.3643C186.415 57.7021 185.906 59.351 185.574 60.7757C184.886 63.722 184.24 66.9035 184.257 69.9295C184.273 72.6848 184.765 76.1682 187.773 77.2826C189.293 77.8456 190.447 77.4584 191.58 76.4098C191.84 76.1105 192.105 75.8161 192.375 75.5263C192.623 75.0997 193.003 75.0466 193.516 75.3674C193.896 75.0656 194.459 72.9798 194.649 72.5137C196.979 66.7995 193.305 60.2387 191.959 54.6321C191.135 51.2028 190.417 47.763 192.084 44.4534C192.354 43.9176 193.098 43.452 192.652 42.6833C192.534 42.4811 191.412 42.3863 191.146 42.1513C190.28 41.3864 190.461 39.9604 190.461 38.9393C188.458 39.5574 187.881 37.9981 188.142 36.0871C186.648 36.3241 185.611 36.7812 185.058 35.0516C184.567 33.5177 185.308 31.9536 185.799 30.5243C178.889 29.783 171.425 28.8331 165.917 24.0604C164.56 22.8834 163.43 21.4021 162.489 19.8675C162.319 19.59 161.518 17.6364 161.253 17.5344C160.464 17.2313 159.802 18.7759 159.101 19.1585C158.478 19.4982 157.592 19.6855 156.9 19.8926C156.249 20.0876 153.952 20.1265 153.545 20.465C152.526 21.3117 152.607 26.2061 152.599 27.3421C152.571 31.2544 153.443 35.1531 155.057 38.7151C156.577 42.0698 158.902 46.6832 161.942 48.8787C162.71 49.4337 163.401 49.7215 164.375 49.6756C165.07 49.6431 165.76 49.1557 166.484 49.4091C168.316 50.0507 167.66 51.3255 166.252 51.9282C162.226 53.6517 158.833 49.8629 156.504 47.2159C155.823 50.3564 158.984 54.0727 160.657 56.6351C161.722 58.2682 162.776 59.9027 163.79 61.5691C164.527 62.7793 165.974 65.0142 163.403 64.0795C162.163 70.5937 158.76 76.2907 157.021 82.6211C155.237 89.1194 153.682 96.5394 153.682 103.307C155.04 102.36 155.726 98.0464 157.553 101.348C157.751 101.705 157.689 102.296 157.949 102.609C158.31 103.04 158.743 102.92 159.296 103.228C160.171 103.716 160.736 104.688 159.953 105.531C160.962 105.296 162.017 105.416 162.235 106.609C162.357 107.279 161.377 110.382 160.645 110.635C158.416 111.408 155.945 106.954 155.341 105.537C153.949 106.936 152.344 108.012 151.061 105.749C150.104 104.063 150.659 101.512 150.794 99.6766C151.066 95.979 151.421 92.3724 151.954 88.7105C152.953 81.8437 155.49 75.7367 158.606 69.5559C159.464 67.8547 160.415 66.1133 161.181 64.3726C162.337 61.7464 160.528 62.366 158.761 62.7473C155.298 63.4947 151.672 64.0746 148.173 64.3393C146.347 64.4774 144.008 64.5597 142.253 65.088C141.019 65.4596 141.23 65.2031 140.735 66.5258C140.513 67.1177 140.263 67.7473 139.872 68.2542C137.878 70.8402 132.714 70.4074 129.862 70.2147C130.035 69.1241 130.205 68.033 130.385 66.9435C128.189 67.4598 125.581 67.8193 123.32 67.7929C122.103 67.7791 120.808 67.5933 119.594 67.4921C118.699 67.4175 117.001 66.7823 116.159 67.0293C115.182 67.3161 113.704 70.8514 113.146 71.9915C112.097 74.1324 110.222 76.5108 109.561 78.7649C108.974 80.7634 110.171 84.2114 110.547 86.2006C111.091 89.0761 111.586 91.9571 112.497 94.7452C113.158 96.7667 113.919 99.5534 115.947 100.562C117.967 101.567 119.419 102.132 121.606 101.927C125.457 101.567 129.554 102.159 133.356 102.908C137.271 103.68 140.856 104.027 144.574 105.402C153.005 108.521 158.375 118.13 155.196 126.932C153.367 131.995 150.355 135.758 145.936 138.89C143.684 140.486 141.024 141.781 138.556 143.011C137.422 143.575 136.308 144.261 135.153 144.762C134.309 145.129 132.858 145.973 131.941 146.066C132.959 146.55 133.86 146.096 134.919 145.946C136.417 145.733 137.947 145.687 139.451 145.501C141.792 145.211 144.098 144.992 146.44 144.701C148.439 144.453 150.694 144.365 152.68 144.651C153.64 144.789 155.084 145.061 155.939 145.524C156.611 145.888 157.227 146.726 157.95 147.142C158.745 143.875 158.373 139.847 158.41 136.489C158.441 133.749 158.563 131.068 158.82 128.34C159.109 125.289 157.244 121.82 156.556 118.831C155.911 116.034 154.194 112.49 154.826 109.57C155.623 105.89 157.709 112.501 157.996 113.447C158.893 116.404 159.936 119.291 160.931 122.213C162.114 125.69 163.307 129.058 165.03 132.316C166.465 135.026 168.113 138.206 171.061 139.529C170.818 135.542 170.548 131.851 168.892 128.175C167.322 124.69 164.927 121.59 163.881 117.856C163.361 116 163.284 114.102 163.259 112.185C163.241 110.895 163.3 109.161 164.682 110.552C165.778 111.655 165.991 115.172 166.471 116.656C166.702 117.371 167.022 118.027 167.277 118.722C167.392 119.035 168.166 120.56 168.166 120.764C168.964 123.174 170.728 125.486 171.968 127.703Z" fill="#36392E"/>
<path fill-rule="evenodd" clip-rule="evenodd" d="M87.34 39.8451C87.4161 40.7786 87.957 43.198 87.2642 43.9367C86.3459 44.9169 85.9107 43.6562 85.5136 42.6622C84.6836 40.5851 84.2712 36.5629 85.9112 34.832C87.6234 33.0244 91.0064 32.9757 92.8336 31.1756C93.5671 30.4525 93.4967 30.6034 93.4327 29.4729C93.3966 28.8346 92.9841 27.9865 92.7847 27.4127C92.2663 25.9219 91.6977 24.449 91.1554 22.9669C90.2079 23.3992 88.8444 24.7327 87.9109 23.615C87.0482 22.5815 88.4836 20.8883 89.4834 20.5862C88.9614 19.4441 86.5023 19.6553 86.0338 17.9776C85.6268 16.5196 86.7962 17.099 87.052 16.5248C87.3531 15.849 86.7366 14.9355 87.0538 14.3129C88.1549 12.151 89.3743 16.126 89.9227 16.8356C90.9429 18.1552 92.7202 18.4435 92.8766 20.4396C92.9731 21.6686 92.8807 22.24 93.3866 23.4469C93.8523 24.5579 94.4058 25.6234 94.7965 26.7667C95.3845 28.4895 96.2913 31.6246 95.1421 33.2927C94.1728 34.6997 91.8193 35.7724 90.2888 36.374C89.5223 36.6751 88.4596 36.8586 87.8395 37.4451C87.0302 38.2102 87.2822 38.6804 87.34 39.8451Z" fill="#36392E"/>
<path fill-rule="evenodd" clip-rule="evenodd" d="M166.858 91.9382C166.683 91.663 166.508 91.3878 166.334 91.1123C165.122 92.4071 163.781 92.9393 162.557 91.2945C161.297 89.6013 161.77 87.0622 162.26 85.2129C162.512 84.2612 163.788 80.509 164.605 83.3674C164.786 83.9983 164.183 85.403 164.074 86.0205C163.859 87.2321 163.69 88.3941 163.841 89.6279C165.261 88.3559 165.956 85.1311 167.397 88.4797C167.92 89.694 167.977 91.6937 169.368 89.8493C170.111 88.8643 170.159 87.046 170.506 85.8855C172.878 86.4531 172.446 89.9631 171.654 91.6732C170.394 94.3963 168.679 93.5194 166.858 91.9382Z" fill="#36392E"/>
<path fill-rule="evenodd" clip-rule="evenodd" d="M175.161 30.8528C176.004 32.2608 174.409 34.8358 174.12 36.2815C175.533 36.1178 179.03 32.7065 180.014 33.2689C182.063 34.4394 177.735 38.5219 176.903 39.1202C170.257 43.9012 171.455 30.0715 175.161 30.8528Z" fill="#36392E"/>
<path fill-rule="evenodd" clip-rule="evenodd" d="M166.827 46.5326C169.31 45.8407 172.658 50.3009 171.048 52.5097C169.892 54.094 168.465 53.1879 168.103 51.7932C167.918 51.0819 168.082 50.2247 167.84 49.4314C167.543 48.4546 167.145 47.5032 166.827 46.5326Z" fill="#36392E"/>
<path fill-rule="evenodd" clip-rule="evenodd" d="M90.4599 27.3076C92.3483 28.8961 88.4899 32.7686 86.5557 29.7363C86.0237 28.9022 85.9269 28.1409 86.7157 27.8329C87.1141 27.6776 88.0534 28.1863 88.6156 28.0963C89.2318 27.9977 89.9013 27.5639 90.4599 27.3076Z" fill="#36392E"/>
<path fill-rule="evenodd" clip-rule="evenodd" d="M83.9715 20.9561C83.2388 20.0413 81.1797 14.4142 83.7314 15.6675C85.0127 16.2968 86.0716 21.1073 83.9715 20.9561Z" fill="#36392E"/>
<path fill-rule="evenodd" clip-rule="evenodd" d="M168.221 141.982C168.149 141.272 168.076 140.562 168.004 139.852C168.946 140.333 170.836 140.807 171.164 141.884C171.78 143.906 168.92 142.288 168.221 141.982Z" fill="#36392E"/>
<path fill-rule="evenodd" clip-rule="evenodd" d="M195.571 56.3296C195.01 55.5709 193.265 49.2419 194.779 49.3867C195.044 51.6827 195.098 54.067 195.571 56.3296Z" fill="#36392E"/>
<path fill-rule="evenodd" clip-rule="evenodd" d="M171.968 127.703C170.728 125.485 168.964 123.174 168.166 120.764C170.036 122.28 171.498 125.377 171.968 127.703Z" fill="#36392E"/>
<path fill-rule="evenodd" clip-rule="evenodd" d="M222.818 122.562C222.893 123.366 222.969 124.17 223.044 124.974C221.921 125.264 222.749 122.828 222.818 122.562Z" fill="#36392E"/>
<path fill-rule="evenodd" clip-rule="evenodd" d="M168.169 120.768C167.637 120.188 167.409 119.476 167.277 118.722C167.574 119.403 167.871 120.085 168.169 120.768Z" fill="#36392E"/>
<path fill-rule="evenodd" clip-rule="evenodd" d="M174.599 157.154C174.619 156.439 174.639 155.724 174.658 155.01C174.639 155.726 174.619 156.44 174.599 157.154Z" fill="#36392E"/>
<path fill-rule="evenodd" clip-rule="evenodd" d="M90.5957 41.1133C91.0714 41.1725 91.5473 41.2317 92.0232 41.2909C91.6477 41.4669 90.7629 41.7009 90.5957 41.1133Z" fill="#36392E"/>
<path fill-rule="evenodd" clip-rule="evenodd" d="M185.477 164.66C185.972 164.585 186.468 164.415 186.955 164.689C186.461 164.679 185.969 164.67 185.477 164.66Z" fill="#36392E"/>
<path fill-rule="evenodd" clip-rule="evenodd" d="M171.331 148.504C171.338 149.034 171.344 149.563 171.35 150.091C171.343 149.561 171.337 149.033 171.331 148.504Z" fill="#36392E"/>
<path fill-rule="evenodd" clip-rule="evenodd" d="M181.56 140.262C181.529 140.827 181.498 141.391 181.467 141.955C181.498 141.39 181.529 140.826 181.56 140.262Z" fill="#36392E"/>
<path fill-rule="evenodd" clip-rule="evenodd" d="M174.826 142.472C174.799 141.981 174.772 141.489 174.745 140.999C174.772 141.491 174.799 141.982 174.826 142.472Z" fill="#36392E"/>
<path fill-rule="evenodd" clip-rule="evenodd" d="M189.536 146.808C189.509 147.246 189.483 147.684 189.456 148.12C189.483 147.682 189.509 147.245 189.536 146.808Z" fill="#36392E"/>
<path fill-rule="evenodd" clip-rule="evenodd" d="M100.652 157.867C100.171 158.11 99.6895 158.134 99.2095 157.864C99.6908 157.865 100.172 157.866 100.652 157.867Z" fill="#36392E"/>
<path fill-rule="evenodd" clip-rule="evenodd" d="M149.943 25.5933C149.95 26.0261 149.956 26.4588 149.963 26.8898C149.956 26.4565 149.949 26.025 149.943 25.5933Z" fill="#36392E"/>
<path fill-rule="evenodd" clip-rule="evenodd" d="M102.121 37.4014C101.627 37.4388 101.134 37.4759 100.641 37.5133C101.134 37.4759 101.628 37.4388 102.121 37.4014Z" fill="#36392E"/>
<path fill-rule="evenodd" clip-rule="evenodd" d="M203.993 39.0673C203.99 38.6402 203.987 38.213 203.985 37.7866C204.212 38.213 204.216 38.6397 203.993 39.0673Z" fill="#36392E"/>
<path fill-rule="evenodd" clip-rule="evenodd" d="M87.3398 39.8452C87.3173 39.3914 87.2947 38.9379 87.2725 38.4849C87.2952 38.9389 87.3175 39.392 87.3398 39.8452Z" fill="#36392E"/>
<path fill-rule="evenodd" clip-rule="evenodd" d="M208.525 173.913C208.858 173.915 209.191 173.917 209.521 173.92C209.187 173.917 208.856 173.915 208.525 173.913Z" fill="#36392E"/>
<path fill-rule="evenodd" clip-rule="evenodd" d="M77.425 0.863281C76.9869 0.900693 76.5489 0.938104 76.1108 0.97526C76.5489 0.938104 76.9869 0.900693 77.425 0.863281Z" fill="#36392E"/>
<path fill-rule="evenodd" clip-rule="evenodd" d="M120.629 168.266C120.911 168.266 121.194 168.266 121.473 168.266C121.189 168.266 120.909 168.266 120.629 168.266Z" fill="#36392E"/>
<path fill-rule="evenodd" clip-rule="evenodd" d="M164.374 49.6758C163.946 49.633 163.518 49.5899 163.09 49.5469C163.518 49.5899 163.946 49.633 164.374 49.6758Z" fill="#36392E"/>
<path fill-rule="evenodd" clip-rule="evenodd" d="M183.843 167.519C183.87 167.165 183.896 166.812 183.922 166.46C183.896 166.814 183.87 167.166 183.843 167.519Z" fill="#36392E"/>
<path fill-rule="evenodd" clip-rule="evenodd" d="M137.48 45.1513C137.058 45.1474 136.637 45.1438 136.215 45.1402C136.639 44.8948 137.06 44.965 137.48 45.1513Z" fill="#36392E"/>
<path fill-rule="evenodd" clip-rule="evenodd" d="M81.2172 0.981685C80.7922 0.968105 80.3429 1.18975 79.9512 0.852539C80.3733 0.895588 80.7952 0.938637 81.2172 0.981685Z" fill="#36392E"/>
<path fill-rule="evenodd" clip-rule="evenodd" d="M69.7386 42.6855C69.3312 42.723 68.9237 42.7604 68.5166 42.7975C68.9242 42.7601 69.3312 42.723 69.7386 42.6855Z" fill="#36392E"/>
<path fill-rule="evenodd" clip-rule="evenodd" d="M95.4017 157.5C94.9727 157.545 94.5433 157.59 94.1147 157.635C94.5438 157.59 94.9729 157.545 95.4017 157.5Z" fill="#36392E"/>
<path fill-rule="evenodd" clip-rule="evenodd" d="M106.083 37.143C105.665 37.152 105.246 37.1609 104.828 37.1699C105.243 37.0036 105.658 36.8468 106.083 37.143Z" fill="#36392E"/>
<path fill-rule="evenodd" clip-rule="evenodd" d="M174.583 151.708C174.581 151.345 174.578 150.981 174.576 150.619C174.578 150.982 174.581 151.345 174.583 151.708Z" fill="#36392E"/>
<path fill-rule="evenodd" clip-rule="evenodd" d="M222.972 120.918C222.927 121.357 222.881 121.796 222.836 122.235C222.881 121.796 222.927 121.357 222.972 120.918Z" fill="#36392E"/>
<path fill-rule="evenodd" clip-rule="evenodd" d="M168.675 149.207C168.644 148.833 168.613 148.459 168.582 148.087C168.613 148.461 168.644 148.834 168.675 149.207Z" fill="#36392E"/>
<path fill-rule="evenodd" clip-rule="evenodd" d="M27.9196 145.775C27.8431 146.147 27.5717 146.221 27.1055 145.995L27.9196 145.775Z" fill="#36392E"/>
<path fill-rule="evenodd" clip-rule="evenodd" d="M184.296 145.941C184.271 145.616 184.246 145.291 184.222 144.967C184.247 145.292 184.271 145.616 184.296 145.941Z" fill="#36392E"/>
<path fill-rule="evenodd" clip-rule="evenodd" d="M96.6203 37.9253C96.2683 37.9732 95.916 38.0209 95.564 38.0688C95.9162 38.0209 96.2683 37.9732 96.6203 37.9253Z" fill="#36392E"/>
<path fill-rule="evenodd" clip-rule="evenodd" d="M171.119 143.173C171.118 143.492 171.118 143.811 171.117 144.129C171.118 143.809 171.118 143.491 171.119 143.173Z" fill="#36392E"/>
<path fill-rule="evenodd" clip-rule="evenodd" d="M149.879 28.7388C149.88 29.0404 149.88 29.3417 149.88 29.6418C149.88 29.3399 149.88 29.0393 149.879 28.7388Z" fill="#36392E"/>
<path fill-rule="evenodd" clip-rule="evenodd" d="M21.4455 99.3765C21.4107 99.6942 21.3759 100.012 21.3413 100.329C21.3761 100.01 21.4107 99.6934 21.4455 99.3765Z" fill="#36392E"/>
<path fill-rule="evenodd" clip-rule="evenodd" d="M232.386 121.221C232.367 120.922 232.348 120.622 232.33 120.325C232.348 120.625 232.367 120.923 232.386 121.221Z" fill="#36392E"/>
<path fill-rule="evenodd" clip-rule="evenodd" d="M50.5201 160.721C50.1563 160.716 49.7925 160.71 49.4287 160.704C49.7969 160.452 50.1596 160.506 50.5201 160.721Z" fill="#36392E"/>
<path fill-rule="evenodd" clip-rule="evenodd" d="M92.8853 20.8889C92.8795 20.5888 92.8736 20.2888 92.8677 19.9897C93.0546 20.2867 93.1145 20.585 92.8853 20.8889Z" fill="#36392E"/>
<path fill-rule="evenodd" clip-rule="evenodd" d="M63.8379 17.0833C63.8632 16.7874 63.8886 16.4914 63.9137 16.1973C63.8883 16.4937 63.8632 16.7884 63.8379 17.0833Z" fill="#36392E"/>
<path fill-rule="evenodd" clip-rule="evenodd" d="M184.082 120.687C184.069 120.36 184.056 120.034 184.044 119.708C184.057 120.035 184.069 120.361 184.082 120.687Z" fill="#36392E"/>
<path fill-rule="evenodd" clip-rule="evenodd" d="M181.74 137.538C181.731 137.846 181.722 138.153 181.712 138.459C181.721 138.151 181.731 137.845 181.74 137.538Z" fill="#36392E"/>
<path fill-rule="evenodd" clip-rule="evenodd" d="M139.866 167.207C140.094 167.206 140.322 167.206 140.547 167.206C140.319 167.207 140.093 167.207 139.866 167.207Z" fill="#36392E"/>
<path fill-rule="evenodd" clip-rule="evenodd" d="M28.9365 167.363C29.1641 167.369 29.3915 167.375 29.6162 167.381C29.3879 167.375 29.1621 167.369 28.9365 167.363Z" fill="#36392E"/>
<path fill-rule="evenodd" clip-rule="evenodd" d="M166.539 140.363C164.32 138.647 162.386 136.08 161.936 133.333C162.89 134.412 163.692 135.616 164.646 136.694C165.026 137.123 165.491 137.492 165.855 137.928C166.685 138.923 166.539 138.967 166.539 140.363Z" fill="#36392E"/>
<path fill-rule="evenodd" clip-rule="evenodd" d="M158.744 128.763C157.679 126.307 156.755 123.329 156.94 120.62C157.675 123.08 159.38 126.169 158.744 128.763Z" fill="#36392E"/>
<path fill-rule="evenodd" clip-rule="evenodd" d="M162.317 143.201C162.299 143.914 162.281 144.627 162.264 145.338C162.282 144.624 162.3 143.913 162.317 143.201Z" fill="#36392E"/>
<path fill-rule="evenodd" clip-rule="evenodd" d="M21.4839 162.577C22.2117 162.62 22.9398 162.663 23.6677 162.707C22.9365 162.716 22.1956 162.894 21.4839 162.577Z" fill="#36392E"/>
<path fill-rule="evenodd" clip-rule="evenodd" d="M162.313 140.846C162.316 141.454 162.319 142.062 162.321 142.668C162.319 142.06 162.316 141.453 162.313 140.846Z" fill="#36392E"/>
<path fill-rule="evenodd" clip-rule="evenodd" d="M132.407 70.3678C131.997 70.3465 131.587 70.325 131.181 70.3037C131.592 70.325 131.999 70.3465 132.407 70.3678Z" fill="#36392E"/>
<path fill-rule="evenodd" clip-rule="evenodd" d="M139.073 55.2488C139.071 54.7555 139.07 54.2623 139.068 53.77C139.07 54.2635 139.071 54.7563 139.073 55.2488Z" fill="#36392E"/>
<path fill-rule="evenodd" clip-rule="evenodd" d="M130.273 67.6226C130.254 67.2757 130.069 67.1009 129.719 67.0986C130.423 66.7178 130.608 66.8926 130.273 67.6226Z" fill="#36392E"/>
<path fill-rule="evenodd" clip-rule="evenodd" d="M151.151 95.0643C151.178 94.6254 151.206 94.1865 151.233 93.7485C151.206 94.1877 151.178 94.6262 151.151 95.0643Z" fill="#36392E"/>
<path fill-rule="evenodd" clip-rule="evenodd" d="M31.8179 162.887C32.3089 162.853 32.7999 162.818 33.291 162.784C32.7997 162.818 32.3089 162.853 31.8179 162.887Z" fill="#36392E"/>
<path fill-rule="evenodd" clip-rule="evenodd" d="M134.95 103.294L136.411 103.284C135.924 103.287 135.437 103.291 134.95 103.294Z" fill="#36392E"/>
<path fill-rule="evenodd" clip-rule="evenodd" d="M148.897 49.8047C148.557 49.8075 148.218 49.8103 147.881 49.8129C148.222 49.8101 148.559 49.8075 148.897 49.8047Z" fill="#36392E"/>
<path fill-rule="evenodd" clip-rule="evenodd" d="M219.728 168.578C220.154 168.576 220.579 168.574 221.005 168.572C220.581 168.841 220.155 168.834 219.728 168.578Z" fill="#36392E"/>
<path fill-rule="evenodd" clip-rule="evenodd" d="M40.8958 109.565C40.607 109.574 40.3182 109.582 40.0322 109.59C40.322 109.582 40.6088 109.574 40.8958 109.565Z" fill="#36392E"/>
<path fill-rule="evenodd" clip-rule="evenodd" d="M194.291 45.7021C194.564 45.9661 194.205 46.5729 193.879 46.3638C194.016 46.1431 194.153 45.9228 194.291 45.7021Z" fill="#36392E"/>
<path fill-rule="evenodd" clip-rule="evenodd" d="M60.7725 136.283C60.7845 135.91 60.7968 135.536 60.8088 135.164C60.7965 135.537 60.7845 135.91 60.7725 136.283Z" fill="#36392E"/>
<path fill-rule="evenodd" clip-rule="evenodd" d="M158.41 136.489C158.43 136.1 158.45 135.71 158.469 135.321C158.449 135.711 158.43 136.1 158.41 136.489Z" fill="#36392E"/>
<path fill-rule="evenodd" clip-rule="evenodd" d="M226.548 95.8955C226.564 96.2855 226.581 96.6755 226.597 97.0642C226.581 96.674 226.564 96.2847 226.548 95.8955Z" fill="#36392E"/>
<path fill-rule="evenodd" clip-rule="evenodd" d="M94.9727 140.063C95.4089 140.101 95.8449 140.138 96.2812 140.175C95.8449 140.138 95.4087 140.101 94.9727 140.063Z" fill="#36392E"/>
<path fill-rule="evenodd" clip-rule="evenodd" d="M154.794 110.151C154.816 109.763 154.837 109.376 154.858 108.989C154.837 109.377 154.816 109.764 154.794 110.151Z" fill="#36392E"/>
<path fill-rule="evenodd" clip-rule="evenodd" d="M79.0029 117.521C79.4376 117.561 79.8724 117.601 80.3071 117.641C79.8724 117.6 79.4376 117.56 79.0029 117.521Z" fill="#36392E"/>
<path fill-rule="evenodd" clip-rule="evenodd" d="M117.471 151.397C117.191 151.398 116.911 151.398 116.634 151.398C116.915 151.397 117.193 151.397 117.471 151.397Z" fill="#36392E"/>
<path fill-rule="evenodd" clip-rule="evenodd" d="M142.165 56.7061C142.148 57.0681 142.131 57.4299 142.115 57.7902C142.132 57.4279 142.149 57.0668 142.165 56.7061Z" fill="#36392E"/>
<path fill-rule="evenodd" clip-rule="evenodd" d="M148.367 144.526C148.797 144.22 149.216 144.422 149.636 144.555C149.213 144.545 148.79 144.536 148.367 144.526Z" fill="#36392E"/>
<path fill-rule="evenodd" clip-rule="evenodd" d="M98.0571 40.9312C97.7739 40.9196 97.491 40.9078 97.2109 40.895C97.4951 40.9066 97.776 40.9189 98.0571 40.9312Z" fill="#36392E"/>
<path fill-rule="evenodd" clip-rule="evenodd" d="M166.659 151.184C166.634 150.823 166.608 150.463 166.583 150.104C166.608 150.465 166.634 150.825 166.659 151.184Z" fill="#36392E"/>
<path fill-rule="evenodd" clip-rule="evenodd" d="M143.489 110.495C143.256 110.496 143.022 110.498 142.792 110.5C143.026 110.498 143.258 110.496 143.489 110.495Z" fill="#36392E"/>
<path fill-rule="evenodd" clip-rule="evenodd" d="M153.328 123.587C153.328 123.287 153.328 122.986 153.328 122.687C153.328 122.988 153.328 123.288 153.328 123.587Z" fill="#36392E"/>
<path fill-rule="evenodd" clip-rule="evenodd" d="M138.404 145.637C138.754 145.592 139.103 145.546 139.452 145.501C139.102 145.546 138.753 145.592 138.404 145.637Z" fill="#36392E"/>
<path fill-rule="evenodd" clip-rule="evenodd" d="M123.301 101.896C123.68 101.894 124.058 101.891 124.436 101.889C124.059 102.112 123.681 102.07 123.301 101.896Z" fill="#36392E"/>
<path fill-rule="evenodd" clip-rule="evenodd" d="M142.903 65.0938C142.684 65.0917 142.465 65.0897 142.25 65.0879C142.469 65.0897 142.686 65.0917 142.903 65.0938Z" fill="#36392E"/>
<path fill-rule="evenodd" clip-rule="evenodd" d="M78.2844 120.865C78.0589 120.862 77.8336 120.859 77.6108 120.855C77.8374 120.859 78.0609 120.862 78.2844 120.865Z" fill="#36392E"/>
<path fill-rule="evenodd" clip-rule="evenodd" d="M34.7207 106.064C35.0983 106.068 35.4759 106.072 35.8536 106.076C35.4736 106.29 35.096 106.295 34.7207 106.064Z" fill="#36392E"/>
<path fill-rule="evenodd" clip-rule="evenodd" d="M226.585 106.689C226.561 106.978 226.537 107.266 226.514 107.553C226.538 107.264 226.561 106.977 226.585 106.689Z" fill="#36392E"/>
<path fill-rule="evenodd" clip-rule="evenodd" d="M130.448 153.036C130.48 152.721 130.513 152.406 130.545 152.092C130.512 152.407 130.48 152.721 130.448 153.036Z" fill="#36392E"/>
<path fill-rule="evenodd" clip-rule="evenodd" d="M69.3887 115.517C69.7701 115.522 70.1518 115.528 70.5336 115.533C70.148 115.799 69.7686 115.631 69.3887 115.517Z" fill="#36392E"/>
<path fill-rule="evenodd" clip-rule="evenodd" d="M156.383 60.2359C156.754 60.1939 157.125 60.1519 157.496 60.1099C157.125 60.1519 156.754 60.1939 156.383 60.2359Z" fill="#36392E"/>
<path fill-rule="evenodd" clip-rule="evenodd" d="M125.368 161.156C125.402 161.487 125.435 161.818 125.469 162.148C125.435 161.817 125.401 161.487 125.368 161.156Z" fill="#36392E"/>
<path fill-rule="evenodd" clip-rule="evenodd" d="M158.416 139.4C158.416 139.091 158.415 138.782 158.415 138.475C158.415 138.784 158.416 139.092 158.416 139.4Z" fill="#36392E"/>
<path fill-rule="evenodd" clip-rule="evenodd" d="M23.8481 162.75C24.2073 162.798 24.5665 162.845 24.9255 162.892C24.5663 162.845 24.2071 162.798 23.8481 162.75Z" fill="#36392E"/>
<path fill-rule="evenodd" clip-rule="evenodd" d="M30.5864 162.896C30.941 162.606 31.301 162.695 31.6622 162.88C31.3035 162.885 30.9448 162.891 30.5864 162.896Z" fill="#36392E"/>
<path fill-rule="evenodd" clip-rule="evenodd" d="M95.3809 120.381C95.7321 120.338 96.0834 120.295 96.4341 120.251C96.0829 120.295 95.7319 120.338 95.3809 120.381Z" fill="#36392E"/>
<path fill-rule="evenodd" clip-rule="evenodd" d="M134.409 164.53C134.767 164.482 135.125 164.434 135.483 164.386C135.125 164.434 134.767 164.482 134.409 164.53Z" fill="#36392E"/>
<path fill-rule="evenodd" clip-rule="evenodd" d="M121.891 165.086C122.256 165.039 122.621 164.992 122.986 164.945C122.621 164.992 122.256 165.039 121.891 165.086Z" fill="#36392E"/>
<path fill-rule="evenodd" clip-rule="evenodd" d="M141.987 58.894C141.971 59.189 141.955 59.4842 141.939 59.7773C141.955 59.4816 141.971 59.1877 141.987 58.894Z" fill="#36392E"/>
<path fill-rule="evenodd" clip-rule="evenodd" d="M56.0156 129.225C56.0481 128.912 56.0806 128.598 56.1132 128.286C56.0804 128.6 56.0481 128.912 56.0156 129.225Z" fill="#36392E"/>
<path fill-rule="evenodd" clip-rule="evenodd" d="M139.168 51.2649C139.178 50.9577 139.187 50.6504 139.197 50.3447C139.188 50.6525 139.178 50.9587 139.168 51.2649Z" fill="#36392E"/>
<path fill-rule="evenodd" clip-rule="evenodd" d="M69.4531 125.742C69.4854 126.055 69.5176 126.369 69.5496 126.681C69.5174 126.367 69.4851 126.055 69.4531 125.742Z" fill="#36392E"/>
<path fill-rule="evenodd" clip-rule="evenodd" d="M70.6626 115.52C71.0328 115.561 71.403 115.601 71.7729 115.642C71.4027 115.601 71.0325 115.561 70.6626 115.52Z" fill="#36392E"/>
<path fill-rule="evenodd" clip-rule="evenodd" d="M129.596 161.24C129.806 161.859 129.729 163.3 129.13 163.737C127.888 164.643 127.761 162.988 127.514 162.094C126.83 159.615 125.729 156.847 125.449 154.298C125.363 153.516 125.316 152.052 126.349 151.788C127.347 151.534 127.852 153.115 128.196 153.928C129.15 156.182 129.704 158.796 129.596 161.24Z" fill="#36392E"/>
<path fill-rule="evenodd" clip-rule="evenodd" d="M129.595 161.24C129.609 160.92 129.624 160.6 129.638 160.281C129.623 160.602 129.609 160.921 129.595 161.24Z" fill="#36392E"/>
</svg>
