<svg width="48" height="48" viewBox="0 0 48 48" fill="none" xmlns="http://www.w3.org/2000/svg">
<g clip-path="url(#clip0_195_7018)">
<path d="M9 24C11.7614 24 14 21.7614 14 19C14 16.2386 11.7614 14 9 14C6.23858 14 4 16.2386 4 19C4 21.7614 6.23858 24 9 24Z" fill="#323232"/>
<path d="M18 16C20.7614 16 23 13.7614 23 11C23 8.23858 20.7614 6 18 6C15.2386 6 13 8.23858 13 11C13 13.7614 15.2386 16 18 16Z" fill="#323232"/>
<path d="M30 16C32.7614 16 35 13.7614 35 11C35 8.23858 32.7614 6 30 6C27.2386 6 25 8.23858 25 11C25 13.7614 27.2386 16 30 16Z" fill="#323232"/>
<path d="M39 24C41.7614 24 44 21.7614 44 19C44 16.2386 41.7614 14 39 14C36.2386 14 34 16.2386 34 19C34 21.7614 36.2386 24 39 24Z" fill="#323232"/>
<path d="M34.6798 29.72C32.9398 27.68 31.4798 25.94 29.7198 23.9C28.7998 22.82 27.6198 21.74 26.2198 21.26C25.9998 21.18 25.7798 21.12 25.5598 21.08C25.0598 21 24.5198 21 23.9998 21C23.4798 21 22.9398 21 22.4198 21.1C22.1998 21.14 21.9798 21.2 21.7598 21.28C20.3598 21.76 19.1998 22.84 18.2598 23.92C16.5198 25.96 15.0598 27.7 13.2998 29.74C10.6798 32.36 7.4598 35.26 8.0598 39.32C8.6398 41.36 10.0998 43.38 12.7198 43.96C14.1798 44.26 18.8398 43.08 23.7998 43.08H24.1598C29.1198 43.08 33.7798 44.24 35.2398 43.96C37.8598 43.38 39.3198 41.34 39.8998 39.32C40.5198 35.24 37.2998 32.34 34.6798 29.72Z" fill="#323232"/>
</g>
<defs>
<clipPath id="clip0_195_7018">
<rect width="48" height="48" fill="white"/>
</clipPath>
</defs>
</svg>
