<svg width="209" height="149" viewBox="0 0 209 149" fill="none" xmlns="http://www.w3.org/2000/svg">
<path fill-rule="evenodd" clip-rule="evenodd" d="M88.8688 62.6515C86.6161 64.2821 86.9746 67.4906 87.6528 69.8217C88.6515 73.2542 90.6405 76.4316 92.9095 79.1705C96.9349 84.0294 103.769 89.4853 110.068 85.2196C115.677 81.4205 119.216 73.755 120.437 67.2981C120.815 65.3027 121.317 62.3294 119.544 60.8293C116.922 58.6119 112.296 59.0153 109.131 59.3008C107.046 59.4887 105.035 60.1266 102.975 59.8273C98.1883 59.1308 92.8613 59.7615 88.8688 62.6515Z" fill="#75A342"/>
<path fill-rule="evenodd" clip-rule="evenodd" d="M185.915 88.0783C181.352 93.8584 173.593 94.7717 166.702 94.7151C162.564 94.6808 158.418 94.3698 154.362 93.528C152.175 93.0739 150.002 92.4725 147.889 91.7501C146.493 91.2728 144.415 91.0342 143.821 89.5408C142.255 85.6009 143.407 80.6597 144.052 76.6604C144.381 74.6262 144.627 72.5798 144.946 70.5441C145.151 69.2415 145.248 67.8005 145.795 66.5819C146.435 65.1545 147.244 65.4395 148.598 65.8337C150.463 66.3775 152.378 66.6034 154.296 66.8959C158.976 67.6094 163.059 69.0485 167.313 71.0881C171.519 73.1046 175.599 75.0953 179.35 77.8992C181.251 79.3205 182.889 80.8628 184.415 82.6739C185.593 84.0731 187.353 86.2574 185.915 88.0783ZM165.967 113.752C165.93 114.374 158.778 112.495 157.837 112.284C151.661 110.901 145.363 109.326 139.533 106.827C134.091 104.495 129.296 101.827 125.014 97.6827C123.018 95.751 121.223 93.7171 119.505 91.5508C118.644 90.465 117.467 90.5911 116.507 89.6726C115.643 88.8458 114.981 88.2002 115.251 86.9643C117.409 87.5321 121.394 91.1012 123.631 89.2988C124.907 88.2716 123.138 87.1984 122.321 86.6032C120.787 85.4837 119.474 84.1028 118.254 82.6534C120.349 83.059 122.299 83.8423 124.122 84.9328C124.932 85.4172 127.709 87.1739 128.355 85.4993C128.753 84.4683 126.87 83.1729 126.283 82.6024C124.842 81.2022 123.286 79.5674 122.521 77.6847C124.413 77.2465 126.196 78.7065 127.485 79.8957C128.915 81.2161 130.668 82.6017 131.867 84.123C132.486 84.9076 132.62 85.8345 133.104 86.6808C133.648 87.6329 134.517 88.4491 135.349 89.1535C136.951 90.5112 138.824 91.5108 140.747 92.3376C145.141 94.2265 149.851 95.5634 154.535 96.5012C156.833 96.9614 159.074 97.1733 161.407 97.2514C163.219 97.3122 164.021 97.8535 164.713 99.5209C166.586 104.033 166.246 108.997 165.967 113.752ZM112.179 79.3702C111.131 80.3492 109.769 80.9634 108.674 81.9047C107.71 82.7329 106.598 83.6166 105.522 84.2864C104.373 85.0013 103.515 84.5 102.481 83.8531C101.267 83.0943 99.8717 82.7866 98.6213 82.1076C94.2984 79.7582 89.0097 74.0018 89.8167 68.7163C90.1586 66.4762 91.3186 64.2719 93.425 63.2552C95.3381 62.3325 98.1188 61.8202 100.166 62.5918C101.32 63.0271 102.146 63.9879 102.886 64.9326C103.748 66.0337 104.078 65.8602 104.957 64.7981C106.529 62.8981 109.12 61.2311 111.683 61.2712C112.956 61.2915 114.221 61.5594 115.368 62.0871C115.524 62.1588 115.61 62.3753 115.766 62.4487C115.958 62.5389 116.273 62.3513 116.406 62.4356C116.742 62.6479 117.077 63.3111 117.271 63.6478C118.048 64.9981 119.448 67.6463 118.037 68.7833C118.036 68.7838 118.1 70.3217 118.081 70.4969C117.981 71.4144 117.664 72.1718 117.254 73.0109C116.025 75.5313 114.211 77.4719 112.179 79.3702ZM114.268 100.696C113.276 101.004 112.206 97.8977 113.159 97.4019C114.067 96.9291 115.167 100.417 114.268 100.696ZM98.6758 96.982C98.3319 98.1553 98.1866 99.4871 97.3459 100.442C96.5761 99.5301 96.5001 97.8471 97.2467 96.9093C97.6729 96.3744 99.0518 95.6996 98.6758 96.982ZM130.445 76.4219C130.44 76.4515 131.64 77.0247 131.054 77.6513C130.254 78.5073 130.364 76.8413 130.445 76.4219ZM135.405 66.8583C135.391 68.0447 132.875 67.7582 132.893 66.5649C132.915 65.0962 135.419 65.6004 135.405 66.8583ZM132.402 56.942C132.651 55.8556 137.027 54.3444 136.907 56.2378C136.848 57.1869 131.874 59.2515 132.402 56.942ZM87.5447 93.7816C87.0543 94.3703 86.3575 94.6024 85.7698 95.0545C85.1532 95.5281 84.7125 96.1426 84.1741 96.6987C82.6952 98.2252 80.9151 99.4796 79.3197 100.882C76.3867 103.46 73.577 106.231 70.3252 108.418C64.514 112.324 57.775 114.461 51.0852 116.332C50.531 116.487 48.9345 117.112 48.3862 116.647C47.7948 116.144 48.0956 114.376 48.1228 113.707C48.2337 110.966 48.5538 108.192 48.5191 105.455C48.5048 104.33 48.175 102.732 48.7625 101.703C49.4185 100.555 51.2501 100.218 52.3829 99.7861C55.8265 98.4719 59.1437 96.255 62.1856 94.202C65.9248 91.6779 69.7011 89.112 73.5493 86.7559C77.3192 84.4476 81.4778 82.9018 85.6832 81.5834C85.878 81.9922 83.8713 83.3076 83.6419 83.492C82.5418 84.3764 81.3449 85.2932 80.5282 86.4606C79.9499 87.2871 79.357 89.1572 80.9535 89.2052C81.7273 89.2284 82.8715 88.4809 83.5733 88.2392C84.7323 87.8398 85.9267 87.5595 87.1392 87.3771C86.0968 88.523 82.5638 90.5814 83.2067 92.4871C83.8302 94.3365 87.4378 92.1784 88.6795 92.1784C88.476 92.8233 87.9643 93.2783 87.5447 93.7816ZM44.9257 98.9433C42.6153 99.7545 40.2473 100.216 37.8629 100.739C35.5901 101.239 33.4894 101.615 31.1615 101.323C27.9476 100.919 24.3908 99.5899 23.9833 95.9433C23.5001 91.6228 26.5561 87.6524 29.1801 84.5526C32.3737 80.7813 35.9597 77.4096 39.8462 74.3568C43.7283 71.3066 47.9186 68.6179 52.3083 66.3479C55.648 64.6209 59.4199 63.5724 62.9512 62.2762C63.6231 62.0298 65.4812 61.1634 66.1095 61.8815C66.6174 62.4621 65.9263 63.4292 65.6948 63.9683C65.2433 65.0193 65.1812 66.0775 65.0646 67.2058C64.544 72.2452 63.9172 77.283 63.6288 82.3441C63.5486 83.7545 63.407 85.2301 63.4894 86.6415C63.5349 87.4233 63.9424 88.4189 63.6711 89.1822C63.1495 90.6494 60.7609 91.6205 59.4949 92.276C57.2289 93.4494 54.8291 94.3249 52.5396 95.447C50.0252 96.6797 47.5769 98.0119 44.9257 98.9433ZM76.9665 66.1991C77.6007 66.1121 78.5505 65.9395 79.1159 66.3498C79.8531 66.8847 79.6598 67.629 78.9788 68.017C78.4411 68.3238 77.1826 68.4076 76.6513 68.1292C75.7463 67.6554 75.8995 66.3456 76.9665 66.1991ZM80.4784 77.8681C79.966 78.7203 78.0933 79.2792 78.2564 77.6889C78.3963 76.3272 81.4223 76.2988 80.4784 77.8681ZM79.7833 53.8605C80.6072 54.1791 82.1021 54.4517 82.3464 55.5098C82.5737 56.4946 81.6392 56.4296 80.9646 56.1584C80.4099 55.936 77.9386 53.8434 79.7833 53.8605ZM208.854 91.428C208.373 89.5584 208.739 87.4888 208.474 85.574C208.216 83.7177 207.753 82.0119 207.088 80.2627C205.615 76.39 203.928 72.9039 201.541 69.505C197.045 63.1045 191.829 57.4667 185.53 52.7917C179.312 48.1765 172.427 44.4256 165.133 41.7969C157.398 39.0091 149.612 38.0389 141.456 37.5045C139.02 37.3451 136.587 37.156 134.165 36.8488C132.394 36.6244 130.175 36.3478 128.425 36.8891C127.326 37.2294 126.711 38.1867 127.909 38.815C128.758 39.2605 129.87 39.3138 130.808 39.4322C129.675 43.0261 127.832 46.6326 124.91 49.1073C122.058 51.5234 118.241 52.3517 114.642 52.9645C112.69 53.2964 110.504 53.5535 108.522 53.4101C107.269 53.3199 106.291 52.7405 105.785 54.0293C105.434 54.9248 105.268 55.9073 104.806 54.5553C104.258 52.9568 103.99 52.9669 102.288 52.5129C98.8072 51.5845 94.8167 50.7374 91.78 48.7294C88.6297 46.6462 87.5341 43.2763 85.7752 40.1382C85.3403 39.3625 84.0283 37.7927 84.6987 36.9039C85.3118 36.0912 87.3053 36.1723 88.2183 36.0875C89.1818 35.998 90.1512 35.9943 91.1178 35.9567C91.6778 35.9352 92.8044 36.1644 92.5789 35.3292C92.239 34.0703 88.5971 34.2317 87.6928 34.2112C86.0109 34.1736 84.3058 34.2124 82.6324 34.3971C74.3353 35.3134 65.9634 37.0075 57.9344 39.2666C42.3566 43.6495 27.2695 51.7256 15.9011 63.3605C4.98838 74.529 1.53108 93.1142 8.23968 107.374C11.7262 114.786 19.2923 117.83 26.6266 120.289C30.4953 121.586 34.5918 122.6 38.7043 122.355C40.6778 122.238 42.5502 121.707 44.4749 121.308C45.3144 121.133 46.2696 120.855 47.1319 120.925C47.7844 120.978 48.4114 121.577 49.0236 121.259C49.4581 121.033 49.647 120.386 50.1779 120.11C50.8156 119.779 51.5885 119.659 52.2772 119.492C54.191 119.028 56.0441 118.275 57.9148 117.658C59.8494 117.02 61.6751 116.197 63.5312 115.366C64.4685 114.946 66.6372 113.24 67.2482 114.488C67.5264 115.057 67.4079 116.155 67.4757 116.753C67.5945 117.797 67.7341 118.839 67.8869 119.88C68.223 122.169 68.6255 124.45 69.038 126.727C69.7823 130.837 70.7418 134.771 72.346 138.636C73.6268 141.723 74.7511 145.221 77.1296 147.677C78.1678 148.749 79.5843 149.231 81.0735 148.894C82.7673 148.511 83.6104 146.975 84.6387 145.733C86.9011 142.999 90.6364 140.905 94.0855 140.151C98.3089 139.227 102.423 140.578 106.454 141.726C110.719 142.94 115.06 144.097 119.246 145.556C123.146 146.916 127.358 148.925 131.588 148.75C135.277 148.598 138.722 145.6 141.382 143.315C144.054 141.02 147.395 137.66 151.237 137.931C153.145 138.065 154.883 138.984 156.741 139.357C158.781 139.767 160.952 139.825 163.027 139.978C165.602 140.168 171.363 139.498 172.315 136.405C172.457 135.946 172.457 135.001 171.851 134.817C171.292 134.648 171.007 135.3 170.478 135.27C169.402 135.21 168.561 133.336 167.97 132.611C165.585 129.683 162.312 127.499 159.635 124.854C156.612 121.868 154.032 118.25 151.754 114.681C152.784 114.414 153.895 114.858 154.891 115.069C156.102 115.325 157.282 115.634 158.475 115.962C159.791 116.324 161.125 116.572 162.459 116.848C163.455 117.053 164.777 117.115 165.676 117.614C166.461 118.049 166.899 118.517 167.873 118.643C168.864 118.772 169.881 118.664 170.876 118.657C173.568 118.639 176.255 118.589 178.934 118.305C188.401 117.301 198.437 113.302 204.129 105.367C205.678 103.209 206.925 100.818 207.713 98.2806C208.329 96.2995 209.389 93.5079 208.854 91.428Z" fill="#36392E"/>
<path fill-rule="evenodd" clip-rule="evenodd" d="M99.2936 22.7987C97.6088 23.3208 95.6175 22.7065 94.6491 21.205C93.6643 19.6782 92.9905 17.9114 92.8548 16.0927C92.7251 14.3501 93.1215 12.5858 94.1508 11.1552C95.2459 9.63332 97.4783 7.92758 99.4795 8.45603C99.9011 8.56751 100.282 8.83569 100.661 9.10189C101.062 9.38417 101.459 9.66421 101.898 9.75171C102.011 9.77421 102.09 9.79546 102.149 9.81103C102.229 9.83229 102.271 9.84366 102.308 9.83501C102.352 9.82512 102.389 9.78928 102.469 9.71241C102.514 9.66841 102.573 9.61107 102.656 9.53766C102.825 9.38664 102.989 9.15924 103.148 8.93678H103.149C103.256 8.78724 103.362 8.63968 103.467 8.51931C103.67 8.28771 103.871 8.05364 104.074 7.81907C105.375 6.31132 106.702 4.77464 108.292 3.58211C111.589 1.11112 115.969 -0.0559522 120.059 0.00205921C122.547 0.0372319 124.879 0.773855 127.197 1.6113C127.391 1.68157 127.587 1.75132 127.784 1.82132L127.784 1.82157C129.646 2.48501 131.566 3.1693 133.057 4.49855C136.022 7.14256 136.795 11.5202 137.28 15.2654C137.805 19.3212 136.358 22.8106 134.858 26.4255V26.426L134.857 26.4267V26.427C134.629 26.9772 134.4 27.5301 134.176 28.0882C132.591 32.0427 129.681 35.2463 126.222 37.6874C124.41 38.966 122.407 39.738 120.312 40.4147C119.877 40.5551 119.445 40.7054 119.014 40.8554H119.013H119.013C117.332 41.4397 115.657 42.0221 113.845 42.0194C110.387 42.0144 105.959 40.3744 104.486 36.9726C103.816 35.4236 104.469 35.1455 105.811 35.9874C106.045 36.1344 106.279 36.283 106.512 36.4313V36.4315H106.512L106.513 36.4323C108.217 37.5154 109.909 38.5921 111.91 39.0684C116.322 40.1194 121.607 38.4912 125.476 36.3428C129.343 34.1951 131.94 30.9685 133.675 26.9512C135.426 22.8981 136.106 18.9043 135.431 14.535C134.859 10.8321 133.72 7.44979 130.379 5.43979C123.164 1.10116 113.444 1.45074 107.029 7.08917C106.149 7.86208 105.279 8.61422 104.373 9.35253C103.796 9.82166 103.117 10.3845 103.201 11.1957C103.219 11.3746 103.332 11.6853 103.457 12.0336C103.82 13.0381 104.296 14.3573 102.97 13.7465C102.423 13.4946 101.97 13.1518 101.524 12.8139C100.789 12.2573 100.072 11.714 98.9802 11.6137C97.1129 11.4416 94.8857 12.8738 94.327 14.6764C93.7943 16.3965 94.7444 18.7498 96.2324 19.7363C97.0696 20.2914 97.9833 20.2642 98.9282 20.236C99.0233 20.2333 99.1188 20.2304 99.2144 20.2281C99.2872 20.2264 99.3783 20.2217 99.4817 20.2163C100.117 20.1826 101.228 20.1243 101.523 20.5957C102.131 21.5653 99.986 22.5844 99.2936 22.7987ZM121.77 30.4717C122.087 29.8511 122.4 29.2373 122.754 28.6827C122.918 28.4254 123.186 28.2476 123.442 28.0773H123.443C123.516 28.0284 123.589 27.98 123.658 27.9305C124.524 29.2766 123.669 30.7186 122.933 31.9604C122.847 32.1045 122.763 32.2459 122.684 32.3841C122.451 32.7894 122.224 33.2116 121.994 33.6375C121.504 34.5473 121.005 35.4735 120.427 36.2877C119.016 38.272 115.947 36.1253 115.856 34.0859C115.787 32.5247 116.894 33.2042 117.605 33.7873C118.337 34.3879 118.683 34.5374 119.451 33.8815C120.482 32.9995 121.133 31.7214 121.77 30.4717ZM113.464 24.9729C113.774 22.9253 112.37 24.5153 112.07 25.4571C111.699 26.619 111.392 28.2602 111.953 29.4133C112.982 31.5298 115.885 30.5211 117.282 29.3968C117.937 28.8695 118.854 27.7713 118.823 26.8561C118.769 25.2635 117.54 26.2184 116.784 26.8056H116.784C116.688 26.8805 116.599 26.9495 116.522 27.0063C116.49 27.0293 116.457 27.0538 116.422 27.0795C115.721 27.5966 114.328 28.6241 113.511 28.1157C112.761 27.6487 113.062 26.5397 113.298 25.6672C113.369 25.4069 113.434 25.1676 113.464 24.9729ZM117.616 16.7151C119.274 16.3856 121.408 16.5554 122.85 17.4937C124.708 18.7023 122.265 19.5726 121.207 19.6809C119.926 19.8114 118.288 19.8979 117.111 19.2703C115.444 18.3808 116 17.0369 117.616 16.7151ZM98.693 13.6459C97.4258 13.4 95.6574 14.0387 96.5297 15.5435C97.1808 16.6666 98.7849 17.0445 100.04 17.3404C100.193 17.3762 100.34 17.4111 100.48 17.4457C101.876 17.7917 102.566 17.2816 102.086 15.7444C101.62 14.2567 100.06 13.9114 98.693 13.6459ZM125.155 29.3856C125.271 28.8994 125.951 27.0718 126.411 28.4135C126.481 28.6196 126.49 28.9222 126.499 29.2452C126.522 30.0616 126.549 31.0105 127.589 30.8726C128.126 30.8017 128.38 30.2638 128.616 29.7655C128.733 29.5186 128.845 29.2813 128.984 29.1152C130.403 27.4288 129.968 30.6185 129.597 31.4169C128.78 33.1763 126.494 34.3887 125.36 32.1564C124.938 31.3262 124.94 30.2782 125.155 29.3856ZM130.494 22.2928H130.495C131.153 23.0558 132.249 24.328 132.969 23.4065C133.671 22.5071 132.463 21.1133 131.86 20.4185C131.834 20.3883 131.809 20.3594 131.785 20.3319C131.768 20.3119 131.75 20.2907 131.731 20.2682C131.186 19.6339 129.79 18.0078 129.081 19.2258C128.637 19.9884 129.677 21.4257 130.172 21.9304C130.26 22.0201 130.369 22.1472 130.494 22.2928ZM111.167 37.2603C110.488 36.4817 110.559 35.0387 110.944 34.1378C111.257 33.4042 111.781 34.3123 112.085 34.838C112.159 34.9663 112.22 35.0716 112.262 35.125C112.398 35.2997 112.593 35.4616 112.794 35.628C113.212 35.9745 113.653 36.3398 113.624 36.8764C113.554 38.1874 111.764 37.9442 111.167 37.2603Z" fill="#36392E"/>
<path fill-rule="evenodd" clip-rule="evenodd" d="M170.328 27.571C169.582 27.369 168.838 27.1671 168.097 26.9592C166.374 26.4752 168.002 25.3862 169.026 25.4628C169.818 25.5219 170.592 25.7992 171.353 26.0719C171.69 26.1922 172.024 26.3119 172.356 26.4115C175.667 27.4044 178.737 28.4902 181.831 30.0313C182.293 30.2614 184.325 31.3522 182.981 31.8352C182.275 32.0888 180.854 31.3255 179.859 30.7911C179.541 30.6203 179.266 30.473 179.073 30.3895C176.264 29.1803 173.288 28.3735 170.328 27.571ZM198.452 52.0766C187.374 45.2144 176.342 38.493 163.813 34.5617C163.16 34.3571 162.957 33.7755 163.299 33.1993C163.66 32.592 164.354 32.6143 164.969 32.634L165.022 32.6358C166.643 32.6869 168.226 33.1981 169.759 33.6932L169.954 33.7562C173.46 34.8865 176.799 36.4546 180.091 38.0936C185.864 40.9662 191.418 44.442 196.51 48.394C197.574 49.2198 198.666 49.8892 199.823 50.5644C199.895 50.6065 199.97 50.6492 200.046 50.6932C200.761 51.1028 201.647 51.6105 201.905 52.4069C202.63 54.6482 198.971 52.3985 198.452 52.0766ZM19.5668 50.037C15.5184 53.1818 11.5623 56.4561 7.90231 60.045C6.59922 61.3229 5.51322 62.7844 4.42821 64.2452C3.93138 64.9141 3.43455 65.5827 2.91717 66.2332C2.86172 66.3029 2.80058 66.3845 2.73399 66.4732C2.31756 67.0274 1.69458 67.8566 1.01488 67.7649C0.149948 67.6488 -0.024897 66.1613 0.00267992 65.5117C0.0971446 63.2966 2.12331 61.1573 3.56823 59.632C5.19363 57.9168 6.93143 56.2455 8.7061 54.6838C10.66 52.9645 12.7805 51.4866 14.9414 50.0399C15.731 49.5112 16.5084 48.9519 17.2874 48.3916C18.6011 47.4466 19.9186 46.499 21.3041 45.6909C22.3436 45.0849 24.0695 44.8543 23.5038 46.6786C23.1734 47.7445 21.8755 48.5515 20.7429 49.2557C20.304 49.5285 19.8901 49.7859 19.5668 50.037ZM5.06639 45.6771C7.34533 44.9687 9.45841 43.869 11.5715 42.7694C12.9484 42.0528 14.3255 41.3363 15.7481 40.7282C16.7712 40.2907 17.8092 39.8905 18.8469 39.4904C19.7805 39.1302 20.7137 38.7704 21.6363 38.3835C21.7232 38.3469 21.8173 38.3123 21.9141 38.2765C22.3973 38.098 22.9456 37.8954 23.011 37.3269C23.1006 36.5399 22.6404 36.5634 22.0782 36.592H22.078C22.0418 36.5938 22.0052 36.5957 21.968 36.5972C20.6867 36.6548 19.3319 37.2218 18.0516 37.7577C17.5231 37.9792 17.0069 38.1952 16.514 38.3677C16.0751 38.5215 15.6357 38.6715 15.1966 38.8213C13.8212 39.2909 12.4498 39.7593 11.1083 40.3335C9.32349 41.0972 7.50079 41.8875 5.89345 42.9869C5.83652 43.0259 5.77711 43.0657 5.71621 43.1067C5.18398 43.4644 4.53986 43.8975 4.30964 44.4882C4.07917 45.078 4.20616 45.9448 5.06639 45.6771Z" fill="#36392E"/>
<path fill-rule="evenodd" clip-rule="evenodd" d="M99.4175 30.4843C99.6329 29.8535 102.296 22.9569 101.254 22.749C100.149 22.5283 98.6734 26.5298 98.353 27.2528C97.17 29.9227 96.4694 32.7874 95.9206 35.6514C95.5381 37.6456 95.2022 39.6885 95.3361 41.7272C95.4391 43.294 96.0872 43.5313 97.1551 44.4913C97.1551 39.7323 97.8795 34.9888 99.4175 30.4843Z" fill="#36392E"/>
</svg>
