<svg width="539" height="435" viewBox="0 0 539 435" fill="none" xmlns="http://www.w3.org/2000/svg">
<path fill-rule="evenodd" clip-rule="evenodd" d="M246.44 48.166L246.309 48.1001L246.164 48.121L246.231 48.5783C246.164 48.121 246.164 48.121 246.164 48.121H246.163L246.161 48.1217L246.153 48.1229L246.124 48.1272C246.098 48.1309 246.061 48.1371 246.012 48.1445C245.914 48.1599 245.772 48.1833 245.589 48.2147C245.225 48.277 244.703 48.3718 244.069 48.5019C242.803 48.7613 241.088 49.1618 239.296 49.7232C237.506 50.2846 235.624 51.0117 234.032 51.9299C232.451 52.8419 231.098 53.9763 230.449 55.3795C229.227 58.0224 228.646 62.4974 228.961 66.3001C229.118 68.2042 229.504 69.9888 230.18 71.3124C230.856 72.6379 231.878 73.5899 233.315 73.5899C234.724 73.5899 236.057 72.5498 237.267 71.1892C238.5 69.8039 239.716 67.9583 240.88 66.114C241.133 65.7116 241.384 65.3098 241.633 64.9124C242.533 63.471 243.399 62.0852 244.23 60.9415C244.759 60.2137 245.262 59.6006 245.736 59.144C246.217 58.6812 246.633 58.4143 246.984 58.3219C248.86 57.8277 251.481 56.896 253.62 56.0937C254.692 55.6913 255.648 55.3197 256.337 55.0486C256.68 54.913 256.957 54.8027 257.149 54.7257C257.244 54.6875 257.319 54.6579 257.369 54.6376L257.426 54.6141L257.441 54.608L257.445 54.6067L257.445 54.6061H257.446C257.446 54.6061 257.446 54.6061 257.272 54.1779L257.446 54.6061L258.386 54.2247L257.481 53.7656L246.44 48.166ZM245.745 49.1255C245.922 49.0953 246.06 49.0725 246.154 49.0577L256.152 54.1279L255.998 54.1883C255.313 54.4582 254.362 54.828 253.296 55.2279C251.157 56.0302 248.575 56.9471 246.749 57.4284C246.174 57.5794 245.621 57.9725 245.096 58.4772C244.565 58.988 244.026 59.6505 243.483 60.3979C242.632 61.5706 241.742 62.9941 240.839 64.4391V64.4397C240.593 64.8335 240.346 65.2285 240.099 65.6204C238.934 67.4678 237.753 69.2524 236.577 70.5748C235.379 71.9212 234.288 72.6656 233.315 72.6656C232.369 72.6656 231.599 72.0611 231.002 70.8915C230.404 69.7201 230.034 68.0717 229.881 66.2243C229.575 62.5239 230.153 58.2215 231.288 55.7677C231.817 54.6215 232.973 53.6072 234.493 52.7304C236.004 51.859 237.815 51.1559 239.571 50.6056C241.325 50.056 243.008 49.6628 244.255 49.4071C244.877 49.2795 245.389 49.1865 245.745 49.1255ZM436.381 129.801C434.591 134.216 432.722 138.827 432.186 143.165C438.914 147.291 442.655 153.323 446.65 159.764L446.652 159.766C447.112 160.509 447.577 161.258 448.05 162.01C450.733 166.276 452.877 170.665 455.038 175.087C456.417 177.909 457.803 180.744 459.339 183.569C467.01 197.683 480.558 241.117 482.584 248.121C484.186 253.655 486.473 259.134 488.724 264.525C489.26 265.809 489.794 267.087 490.315 268.36C490.678 269.243 490.689 270.341 490.699 271.399C490.717 273.136 490.733 274.765 492.302 275.157C493.745 275.518 497.519 273.706 500.705 272.177H500.705C502.569 271.282 504.231 270.483 505.107 270.274C512.335 268.547 520.182 269.423 527.577 270.25L527.791 270.274C528.25 267.573 527.212 260.931 526.246 258.299C525.74 256.921 525.244 255.399 524.733 253.826C523.516 250.087 522.206 246.065 520.457 243.05C518.905 240.375 514.7 232.123 509.691 222.292L509.69 222.291C501.866 206.935 492.077 187.724 487.361 179.886C484.323 174.838 481.229 170.199 478.213 165.677C471.384 155.438 464.953 145.798 460.484 133.358C457.035 123.762 454.38 113.481 451.861 103.594C450.918 99.8919 450.164 96.2347 449.414 92.5898V92.5892C448.342 87.3914 447.277 82.2194 445.675 76.9779C445.243 77.2675 444.498 77.4327 443.729 77.6027C442.723 77.8252 441.676 78.0569 441.233 78.5893C440.25 79.7731 440.252 79.7743 440.511 79.8988C440.692 79.9863 441.001 80.1354 441.182 80.7978C441.513 82.0081 442.089 83.0908 442.672 84.1864C443.433 85.6173 444.206 87.0697 444.461 88.8567C445.038 92.9077 444.221 96.8522 443.404 100.798C442.997 102.762 442.59 104.727 442.355 106.705C441.612 112.973 440.654 118.109 438.624 123.99C437.979 125.859 437.188 127.81 436.381 129.801ZM277.764 175.131C273.154 176.828 268.608 178.501 264.186 180.193C264.186 180.193 276.921 193.639 285.269 197.788C286.074 198.189 286.98 198.663 287.951 199.171C291.707 201.137 296.425 203.606 299.956 204.224C304.413 205.003 320.835 206.786 325.049 204.902C326.863 204.092 331.573 200.412 333.122 199.171C333.947 198.511 334.436 197.228 334.921 195.954C335.339 194.86 335.753 193.771 336.377 193.087C341.913 187.013 348.035 182.167 355.297 178.501L355.659 178.319C358.784 176.744 362.757 174.74 364.977 172.042C367.556 168.91 368.225 164.314 368.479 160.422C368.745 156.311 368.769 152.168 368.793 148.023V148.022C368.829 141.612 368.866 135.194 369.802 128.876C371.198 119.45 374.002 109.339 378.233 100.793C380.412 96.3974 383.095 92.2472 386.154 88.4174C386.9 87.4838 387.782 86.7191 388.658 85.9599H388.658C389.385 85.3301 390.107 84.704 390.745 83.988C392.196 82.3563 392.188 81.7634 392.163 79.7823C392.16 79.4951 392.155 79.179 392.155 78.8266C385.566 83.4254 378.219 85.3585 370.559 87.3741C369.995 87.5226 369.43 87.6717 368.863 87.8215C367.573 88.1641 366.27 88.4864 364.964 88.8087C357.753 90.592 350.47 92.3932 344.94 97.6575C341.445 100.986 339.644 101.998 334.916 102.475C333.374 102.63 331.826 102.76 330.278 102.891H330.277C326.962 103.17 323.643 103.448 320.357 103.977C311.699 105.371 303.385 108.059 295.067 110.748L294.542 110.917C277.383 116.463 262.382 125.737 247.506 135.532C241.882 139.234 236.797 143.621 231.716 148.004H231.716C230.772 148.818 229.83 149.631 228.884 150.44C227.962 151.228 226.968 152.06 225.929 152.93L225.928 152.931C218.709 158.975 209.246 166.898 206.064 174.918C207.142 174.82 208.251 174.711 209.385 174.6C218.797 173.674 229.863 172.585 238.547 176.503C239.284 168.367 244.288 158.731 249.671 152.887C254.52 147.623 260.472 142.297 266.449 138.126C277.364 130.51 290.96 127.995 304.1 125.564C307.827 124.874 311.518 124.191 315.1 123.401C316.371 123.12 317.64 122.847 318.905 122.573C326.396 120.957 333.773 119.364 340.92 116.531C343.162 115.642 348.729 116.533 348.253 117.693C347.312 119.988 346.789 122.425 346.267 124.856L346.253 124.921C345.282 129.451 344.463 134.01 343.644 138.57C342.794 143.309 341.942 148.049 340.92 152.757C340.606 154.202 337.553 149.356 337.431 147.604C319.913 159.619 298.218 167.603 277.764 175.131ZM403.612 240.564C398.33 231.384 390.595 223.437 382.934 216.127C384.931 215.345 386.834 211.458 387.924 209.229C388.008 209.058 388.087 208.897 388.161 208.747C389.591 205.855 391.254 202.925 392.893 200.152C394.687 197.117 398.431 188.688 401.705 181.315C403.911 176.349 405.904 171.862 406.944 169.827C410.004 163.841 430.416 103.404 429.961 97.1399C429.951 97.0025 429.941 96.8688 429.931 96.7394C429.745 94.2351 429.668 93.1992 431.082 91.1842C432.271 89.4883 434.287 87.3002 436.183 85.2414C437.389 83.9313 438.548 82.673 439.415 81.6279C440.341 86.6661 438.427 93.0636 436.699 98.8444C436.006 101.161 435.343 103.379 434.903 105.371C433.909 109.883 432.794 114.329 431.678 118.78C430.991 121.521 430.303 124.264 429.643 127.024C429.15 129.088 428.395 131.01 427.64 132.93V132.931C427.082 134.352 426.523 135.773 426.07 137.252C425.486 139.165 425.056 141.118 424.625 143.073V143.074C424.176 145.11 423.726 147.149 423.102 149.147C422.655 150.578 422.177 151.997 421.701 153.413L421.7 153.415C419.575 159.73 417.475 165.971 418.256 172.762C419.087 179.991 420.082 187.784 422.451 194.65C425.261 202.797 427.904 210.491 428.537 219.174C429.138 227.432 427.134 236.029 424.97 243.942C424.203 246.744 418.42 267.062 416.667 266.77C415.655 259.786 411.309 252.912 407.265 246.516L407.264 246.515C405.977 244.479 404.721 242.491 403.612 240.564Z" fill="#75A342"/>
<path fill-rule="evenodd" clip-rule="evenodd" d="M205.916 228.05C206.61 228.288 206.866 227.838 206.684 226.702C205.99 226.393 205.734 226.841 205.916 228.05ZM446.636 54.9997C445.537 55.1007 446.158 56.1871 446.811 56.5938C446.753 56.0626 446.695 55.5315 446.636 54.9997ZM382.581 214.766C383.236 214.264 383.002 213.838 381.881 213.493C381.244 214.012 381.478 214.437 382.581 214.766ZM134.293 212.038C130.731 211.465 127.972 206.061 125.035 207.199C121.359 208.623 117.994 215.051 115.482 217.945C117.419 219.503 119.562 220.903 121.612 222.305C123.727 223.753 123.184 224.265 125.316 222.544C126.868 221.293 128.111 219.04 129.398 217.503C130.943 215.654 132.908 214.012 134.293 212.038ZM216.371 416.751C217.002 416.804 217.429 402.56 217.94 400.6C219.077 396.248 221.058 391.867 223.25 387.955C224.186 386.285 225.858 384.131 226.568 382.417C227.662 379.777 225.892 377.973 225.393 374.941C224.329 368.477 225.74 362.765 228.002 356.771C223.837 355.823 219.82 354.263 215.585 353.612C215.585 359.332 215.02 364.126 212.665 369.373C212.075 370.687 210.887 371.755 211.396 373.362C211.561 373.885 213.016 374.226 213.365 374.707C215.327 377.419 215.643 379.575 215.749 382.957C216.103 394.317 214.862 405.47 216.371 416.751ZM186.877 220.233C189.178 222.18 196.527 208.435 199.054 208.514C204.427 208.681 196.794 222.195 196.326 223.848C198.475 223.081 200.508 218.21 201.657 216.322C202.642 214.705 206.264 206.76 208.333 206.27C212.369 205.314 210.579 212.66 210.014 214.382C208.744 218.258 207.502 222.093 206.394 226.019C208.752 224.731 210.501 217.022 211.559 214.504C213.02 211.022 214.192 207.205 216.472 204.159C218.029 202.082 220.59 199.151 223.398 199.005C226.813 198.827 228.097 202.47 231.174 203.152C231.585 195.388 230.821 187.584 231.728 179.844C225.655 179.971 219.549 180.253 213.552 181.288C210.176 181.871 207.934 181.848 206.27 185.01C204.982 187.461 203.975 190.021 202.757 192.507C198.076 202.066 193.072 211.557 186.877 220.233ZM110.043 191.258C105.609 195.813 101.6 200.524 97.4223 205.303C93.2335 210.092 87.4088 213.164 83.452 218.11C79.8369 222.631 77.1231 227.834 73.6767 232.501C69.8616 237.668 66.7039 243.454 63.4551 248.999C66.8036 249.612 67.6292 249.681 69.7981 247.191C71.594 245.129 73.0642 242.648 74.8766 240.569C79.0908 235.735 83.1534 231.798 88.4191 228.01C93.5659 224.309 100.196 221.07 106.352 219.187C108.752 218.452 109.634 218.637 110.964 216.44C111.917 214.866 112.265 212.893 113.233 211.281C115.322 207.8 118.623 205.844 121.904 203.637C118.196 199.267 113.752 195.696 110.043 191.258ZM406.167 58.6236C404.951 59.5344 404.788 62.9556 404.229 64.3766C403.203 66.9869 401.749 69.4364 400.474 71.929C398.237 76.3054 396.379 81.2043 396.461 86.224C396.544 91.3842 400.541 94.347 405.343 95.2824C410.619 96.3109 414.669 94.2342 419.307 92.0134C423.909 89.8086 427.707 86.3251 431.367 82.8071C434.264 80.023 436.111 75.4889 439.395 73.9268C442.513 72.4436 446.341 71.1316 447.278 66.73C447.919 63.7235 446.698 64.0759 444.065 64.7174C441.261 65.3983 439.232 67.202 436.631 68.1707C438.078 64.8678 438.426 62.1564 436.644 58.92C435.617 57.056 433.692 53.9712 431.359 53.8973C429.823 53.848 427.986 55.5302 426.57 56.0713C424.835 56.7331 422.914 57.0375 421.129 57.5299C415.84 58.9928 411.6 59.2737 406.167 58.6236ZM416.589 266.654C418.364 266.95 424.079 246.698 424.864 243.824C427.023 235.91 429.017 227.306 428.418 219.053C427.787 210.347 425.104 202.703 422.354 194.525C420.031 187.624 419.018 179.884 418.173 172.635C417.204 164.311 420.565 156.833 423.003 149.018C424.129 145.409 424.721 141.714 425.711 138.084C426.751 134.264 428.59 130.799 429.521 126.893C431.248 119.647 433.157 112.527 434.762 105.237C436.29 98.3019 440.461 90.047 439.171 83.0037C436.999 85.6331 434.373 87.926 432.227 90.5092C430.039 93.1448 430.799 93.3512 431.065 97.0054C431.501 103.039 430.234 110.048 428.83 115.91C425.903 128.131 420.727 139.23 416.95 151.087C415.009 157.184 414.237 164.057 411.491 169.811C409.029 174.97 405.622 179.557 403.011 184.542C400.148 190.007 396.796 195.166 393.666 200.481C392.184 202.998 390.642 205.464 389.325 208.076C388.217 210.277 386.989 215.585 384.818 216.438C392.461 223.758 398.313 231.254 403.582 240.445C408.167 248.445 415.258 257.424 416.589 266.654ZM432.495 143.094C439.71 147.522 443.325 154.028 447.754 161.009C452.171 167.975 456.307 175.105 460.238 182.356C468.06 196.779 473.815 211.105 478.138 226.966C480.087 234.119 482.924 241.065 484.95 248.069C486.821 254.54 487.43 261.125 490.123 267.327C490.867 269.039 491.442 272.825 493.414 273.43C495.739 274.143 501.974 270.951 504.324 270.363C511.958 268.456 519.919 268.072 527.746 268.947C528.204 266.248 525.109 260.925 524.143 258.294C522.549 253.948 521.116 249.313 518.979 245.203C515.297 238.126 511.04 231.242 506.781 224.573C502.268 217.507 498.557 209.928 493.941 203.037C491.811 199.858 488.766 195.567 487.366 192.032C486.674 190.285 486.458 189.611 485.623 188.129C484.894 186.834 484.044 185.558 483.274 184.278C473.571 168.139 466.403 151.76 460.165 134.168C456.75 124.539 453.896 114.846 451.193 104.99C448.653 95.7292 448.172 86.1778 445.351 76.9475C443.691 78.0604 440.907 77.9045 440.958 80.1112C440.968 80.5443 443.296 83.6341 443.551 84.2343C444.066 85.4525 444.382 86.7392 444.618 88.0369C445.764 94.3439 443.463 100.462 442.651 106.657C441.865 112.651 441.157 117.559 439.114 123.184C436.903 129.274 433.284 136.71 432.495 143.094ZM266.349 180.361C273.402 186.498 279.935 193.386 288.282 197.533C292.203 199.479 295.32 202.239 299.764 203.015C304.224 203.795 308.826 203.353 313.302 203.035C317.879 202.709 322.019 202.656 326.234 200.773C328.047 199.964 330.805 199.18 332.354 197.942C333.887 196.714 334.853 194.725 336.203 193.245C341.739 187.176 347.862 182.334 355.123 178.671C363.217 174.588 367.696 169.951 368.303 160.609C368.983 150.149 368.087 139.485 369.627 129.09C371.026 119.658 373.822 109.577 378.059 101.033C380.236 96.6406 382.92 92.494 385.979 88.6673C387.343 86.961 389.163 85.8198 390.569 84.2416C392.23 82.3757 391.979 81.8698 391.979 79.0851C384.906 84.0167 376.959 85.8814 368.688 88.0721C360.301 90.2948 351.274 91.709 344.766 97.8995C341.271 101.225 339.47 102.236 334.742 102.712C329.896 103.201 325.004 103.438 320.184 104.213C311.34 105.637 302.865 108.405 294.369 111.147C277.211 116.689 262.211 125.953 247.334 135.739C240.664 140.128 234.76 145.47 228.713 150.635C221.397 156.883 211.56 165.254 207.92 174.421C217.944 173.514 228.123 170.617 237.851 175.001C238.59 166.852 244.113 158.924 249.5 153.079C254.278 147.898 260.119 142.718 265.965 138.55C279.954 128.573 298.609 125.987 314.894 122.397C323.697 120.456 331.902 118.943 340.262 115.632C342.379 114.794 348.554 111.043 349.72 113.278C350.465 114.706 348.554 116.758 348.079 117.917C347.257 119.919 346.788 122 346.312 124.116C344.163 133.658 342.825 143.383 340.746 152.95C340.44 154.359 340.033 160.732 337.502 159.865C335.816 159.288 337.379 149.558 337.257 147.801C315.788 162.515 290.392 171.174 266.349 180.361ZM290.481 344.616C285.71 344.821 280.851 347.391 276.226 348.56C269.991 350.137 263.447 351.742 257.676 354.568C254.604 356.073 254.575 356.953 255.416 360.383C256.077 363.079 256.839 365.689 257.395 368.433C258.775 375.244 260.317 381.968 262.034 388.699C279.804 373.858 302.487 365.465 324.654 359.747C327.79 358.938 330.985 358.689 334.165 358.136C336.95 357.652 340.122 357.997 342.763 357.449C344.459 357.096 345.993 355.952 347.726 355.551C351.477 354.68 355.947 354.611 359.556 353.275C364.386 351.488 369.788 349.126 374.567 346.692C379.783 344.032 383.981 342.089 385.043 336.37C385.885 331.834 387.997 327.596 388.654 323.143C389.509 317.337 388.447 312.178 388.09 306.374C387.262 292.943 385.31 279.367 381.897 266.267C378.625 253.706 376.29 240.848 374.035 228.114C373.595 225.633 372.718 223.347 372.143 220.907C371.184 216.85 369.279 217.891 365.598 218.129C358.714 218.573 351.435 215.826 345.718 212.116C343.019 210.365 339.607 206.362 336.52 205.502C333.77 204.734 330.964 208.451 328.338 209.697C322.066 212.673 314.375 213.479 307.529 213.948C292.595 214.972 281.278 205.245 271.101 195.351C264.27 202.996 256.868 210.266 248.936 216.762C242.4 222.115 236.844 229.067 231.404 235.44C226.293 241.431 222.159 250.747 215.218 254.943C211.17 257.391 208.152 255.842 204.244 253.381C201.141 251.426 197.722 250.361 194.598 248.558C180.177 240.229 166.559 230.823 152.469 221.994C149.388 220.063 144.545 215.521 140.919 215.195C138.232 214.952 138.444 215.625 136.89 217.851C135.384 220.009 133.858 222.151 132.363 224.316C126.504 232.802 120.26 241.563 115.513 250.728C125.848 248.261 135.62 247.881 145.791 249.338C155.148 250.68 167.094 252.298 175.378 257.36C178.917 259.523 182.391 261.951 185.921 264.409C190.351 267.495 193.791 271.81 198.696 274.137C202.926 276.143 207.504 277.052 211.9 278.547C216.841 280.226 223.849 283.356 229.096 281.996C233.567 280.838 237.31 276.869 240.675 274.136C245.055 270.58 250.376 268.149 254.806 264.833C262.659 258.96 270.856 253.941 279.301 248.691C289.386 242.422 299.061 235.216 309.528 229.697C311.586 228.611 313.621 227.859 315.537 226.561C317.337 225.342 318.635 223.111 320.801 224.701C322.728 226.113 321.886 228.716 321.303 230.529C320.757 232.228 320.252 232.771 320.604 234.253C320.932 235.633 323.052 237.749 323.781 239.097C327.221 245.465 329.678 252.3 332.974 258.74C336.182 265.003 339.801 271.029 342.783 277.411C348.67 290.007 356.891 301.17 362.104 314.171C359.703 315.156 359.404 313.129 357.542 312.937C355.506 312.727 356.243 313.115 354.221 314.573C351.51 316.53 348.603 317.767 345.694 319.294C339.217 322.693 332.585 326.692 325.596 329.041C313.591 333.076 302.527 340.207 290.481 344.616ZM497.044 285.805C496.63 288.786 496.096 291.744 495.663 294.72C495.356 296.824 494.18 299.872 494.447 301.954C497.54 300.491 500.868 295.593 503.256 300.952C504.678 304.143 502.895 310.479 502.475 313.913C505.97 313.204 505.181 304.611 510.765 307.385C515.06 309.517 512.055 320.353 515.413 321.408C517.732 317.748 517.35 309.445 518.109 305.088C518.465 303.045 517.955 300.302 520.344 300.169C522.412 300.054 524.05 303.055 525.029 304.427C525.961 299.447 528.478 295.028 527.379 290.444C526.7 287.609 526.005 284.771 525.279 281.946C524.851 280.283 524.396 275.18 522.951 274.037C520.263 271.909 510.44 275.697 507.469 276.551C504.759 277.331 501.304 278.07 498.81 279.384C496.19 280.765 496.994 282.753 497.044 285.805ZM409.996 114.433C414.019 113.992 417.506 111.552 420.593 109.008C425.652 104.839 426.421 101.574 427.382 95.1506C420.893 98.3161 416.1 100.934 408.779 101.066C400.398 101.217 396.278 96.2992 392.424 89.5319C391.391 91.1088 389.915 92.7818 389.16 94.5103C388.207 96.6936 388.328 96.24 388.604 98.4559C389.031 101.877 390.734 106.262 392.465 109.263C396.2 115.745 403.544 116.623 409.996 114.433ZM244.344 374.843H251.953C251.516 372.053 251.081 369.263 250.644 366.473C250.264 364.038 250.895 360.613 248.505 360.189C246.524 359.838 244.56 362.034 242.545 361.837C240.246 361.613 238.923 359.963 236.258 360.626C232.465 361.573 233.223 365.731 233.166 369.22C233.145 370.591 232.618 372.652 233.046 373.984C233.791 376.308 233.169 375.381 235.478 375.607C238.188 375.873 241.552 374.994 244.344 374.843ZM432.974 38.8038C435.761 39.2477 442.98 45.1846 445.018 43.7685C447.784 41.8467 439.831 36.5374 438.202 35.7016C430.238 31.6167 415.342 34.8444 409.989 42.3025C413.498 42.6439 417.784 39.4276 421.383 38.8989C425.239 38.3328 429.1 38.8134 432.974 38.8038ZM431.031 192.456C433.301 201.608 437.376 211.415 437.351 220.93C437.326 230.819 435.143 239.794 431.145 248.849C429.145 253.379 427.353 257.959 425.08 262.363C424.029 264.403 423.06 266.903 421.605 268.682C419.81 270.876 419.253 270.714 417.118 268.971C416.165 271.414 415.164 273.931 411.92 272.29C409.585 271.107 409.634 268.176 408.87 265.997C406.82 260.157 402.44 255.12 399.347 249.8C396.175 244.345 393.499 238.477 389.99 233.233C388.301 230.709 386.288 228.358 384.484 225.906C383.115 224.048 381.027 219.752 379.126 218.661C378.875 221.111 381.485 224.678 382.45 227.07C383.715 230.211 384.802 233.44 385.715 236.701C387.491 243.033 388.562 249.651 389.914 256.088C392.33 267.596 395.179 279.029 396.796 290.71C398.3 301.576 398.7 312.803 397.557 323.718C397.067 328.406 394.321 332.37 392.469 336.64C389.953 342.444 386.895 346.063 381.841 350.181C372.662 357.657 362.499 362.132 351.32 365.469C349.234 366.092 347.296 365.821 345.34 366.243C343.145 366.716 341.398 367.835 339.012 368.209C332.854 369.173 326.589 370.306 320.644 372.053C315.958 373.431 311.329 374.866 306.693 376.297C303.16 377.388 298.808 378.402 295.406 380.01C287.017 383.977 279.147 388.63 271.362 393.56C269.08 395.007 267.397 395.883 265.714 398.022C263.893 400.337 264.156 401.973 263.163 404.613C262.237 407.076 260.621 408.464 258.425 406.416C256.372 404.502 257.183 400.462 257.016 398.093C256.765 394.521 254.65 380.863 252.194 379.721C250.42 378.897 245.234 380.669 243.083 380.906C240.296 381.213 237.784 381.206 235.008 380.824C235.926 384.648 232.575 389.819 231.168 393.181C228.768 398.915 226.9 404.5 225.905 410.603C225.228 414.763 225.445 418.941 224.807 423.15C224.148 427.495 225.146 434.307 219.251 434.959C209.894 435.993 207.507 417.255 206.443 410.971C204.773 401.116 206.094 391.405 207.079 381.498C207.159 380.695 207.567 377.164 207.204 376.524C206.908 376.002 204.278 375.101 203.938 374.86C200.973 372.75 202.18 371.628 203.063 368.485C204.75 362.479 204.261 354.974 208.314 349.723C211.415 345.705 218.377 348.145 222.387 349.23C225.376 350.038 228.329 351.126 231.234 352.203C233.242 352.948 235.484 355.175 237.243 355.535C240.751 356.252 243.335 351.768 245.952 350.18C250.672 347.316 255.596 344.683 260.682 342.763C270.028 339.234 279.7 337.208 289.288 334.237C295.159 332.42 300.957 330.432 306.534 327.805C310.655 325.865 314.81 323.133 319.268 321.819C324.883 320.162 330.582 317.86 336.064 315.572C341.893 313.137 348.272 311.577 354.255 309.605C341.799 291.353 331.155 271.831 322.6 251.438C321.614 249.086 320.666 246.722 319.793 244.326C319.348 243.106 318.255 237.639 317.097 236.866C314.992 235.465 306.534 241.815 304.178 243.361C295.639 248.96 287.451 255.079 278.555 260.168C270.852 264.575 263.584 269.686 256.216 274.412C252.159 277.015 248.386 280.334 244.26 282.963C240.146 285.583 235.305 290.465 230.43 291.597C228.612 292.02 225.53 291.503 223.692 291.354C221.101 291.143 218.209 290.911 215.688 290.19C210.747 288.778 205.527 287.174 200.699 285.417C192.02 282.258 185.293 274.465 177.469 269.653C168.039 263.853 157.356 262.408 146.816 259.202C135.284 255.695 122.494 255.313 110.323 256.224C110.323 245.108 115.683 236.772 121.533 227.649C117.32 224.88 115.542 223.155 110.826 225.717C107.328 227.617 104.103 229.326 100.858 231.45C97.3331 233.758 93.5813 235.529 90.0709 238.059C86.2557 240.81 82.9183 243.728 79.3949 246.807C76.7451 249.122 73.7278 251.227 70.9562 253.32C68.219 255.387 65.4319 255.088 61.932 253.679C60.8995 253.263 57.676 251.813 57.1305 251.113C56.031 249.705 56.8442 248.722 57.7579 246.864C59.8702 242.564 62.5692 238.2 65.3261 234.268C67.7868 230.76 70.9808 227.83 73.5579 224.408C76.0045 221.161 77.7536 217.391 80.5874 214.448C83.7568 211.157 87.5153 208.515 90.508 205.009C91.9997 203.26 93.7001 201.395 93.8183 199.331C93.9088 197.747 92.1475 196.213 92.1308 195.077C92.0933 192.41 96.6589 189.697 98.565 187.735C101.363 184.853 104.127 182.364 108.45 183.6C111.623 184.507 116.397 188.511 118.761 190.837C121.736 193.766 124.202 197.155 127.27 200.052C128.995 201.681 130.834 203.168 132.617 204.729C133.671 205.653 135.341 208.3 136.507 208.84C137.55 209.324 138.567 208.867 140.025 208.827C139.368 208.844 142.69 209.404 142.514 209.356C144.086 209.777 145.638 210.234 147.188 210.736C153.558 212.796 159.427 216.271 165.175 219.732C179.774 228.523 193.473 237.891 207.771 247.261C212.007 250.035 213.171 249.838 216.423 245.866C219.457 242.16 221.973 238.042 224.824 234.199C229.521 227.869 234.817 221.712 240.363 216.086C246.072 210.298 252.653 205.45 258.755 200.094C260.45 198.606 267.433 193.583 266.992 191.7C266.743 190.636 264.486 188.841 263.77 187.752C262.703 186.129 261.597 184.297 260.81 182.506C256.175 171.964 268.204 171.242 275.243 167.984C283.836 164.006 292.343 159.612 301.126 156.061C305.536 154.278 309.952 152.65 314.404 150.997C318.503 149.475 322.235 147.008 326.269 145.329C329.24 144.091 335.694 143.62 337.674 140.988C338.842 139.436 338.339 134.532 338.544 132.724C338.883 129.723 339.383 126.738 340.167 123.819C338.695 123.554 335.931 125.172 334.592 125.794C332.013 126.992 329.768 128.172 326.908 128.925C320.787 130.536 314.378 130.72 308.347 132.468C299.169 135.131 289.382 136.671 280.405 140.491C270.067 144.889 261.167 152.625 253.906 160.974C250.158 165.284 247.177 169.428 244.62 174.543C243.957 175.868 243.172 180.309 242.153 181.233C240.856 182.41 237.433 181.171 235.96 180.928C235.96 184.846 236.041 188.771 235.901 192.682C235.751 196.811 236.496 203.145 235.068 206.953C233.729 210.529 231.229 209.789 228.582 208.011C225.063 205.648 223.258 204.293 220.104 207.954C214.617 214.322 212.541 224.215 208.778 231.669C207.545 234.111 204.505 239.222 202.844 234.204C201.633 230.547 203.641 225.882 202.703 222.269C201.42 224.524 197.585 231.23 194.552 231.211C190.378 231.186 191.74 224.699 191.879 222.054C189.418 224.684 182.194 233.276 180.446 226.388C179.103 221.102 182.852 215.856 185.514 211.695C188.611 206.851 191.656 201.934 194.87 197.175C198.016 192.516 200.121 187.237 203.309 182.55C200.879 182.887 196.174 182.092 197.669 178.326C198.451 176.357 200.924 177.185 202.131 175.962C203.389 174.689 204.066 171.075 204.77 169.407C208.238 161.186 213.211 154.428 218.962 147.743C229.123 135.932 242.098 126.501 255.178 118.591C270.763 109.166 286.831 103.434 304.283 98.8269C312.553 96.6449 320.939 95.6411 329.298 94.0685C332.769 93.4159 336.288 93.048 339.034 90.8475C343.128 87.5655 345.827 85.1358 350.762 83.0413C354.749 81.3491 358.533 80.5684 362.883 79.8456C367.544 79.0697 372.892 80.1013 377.371 78.7844C381.093 77.6888 385.431 75.3102 388.812 73.4073C390.515 72.4491 393.531 71.9093 394.449 71.094C396.225 69.5221 397.4 65.6017 398.532 63.4905C395.729 64.2257 394.661 62.2316 393.91 59.8166C392.662 55.8001 392.649 57.1349 388.754 55.4532C386.447 54.4568 385.7 51.7978 383.871 50.8538C381.91 49.8407 378.8 52.0258 376.483 51.3153C374.605 50.7391 372.769 48.7186 372.872 46.5686C372.915 45.6707 373.86 44.8746 373.876 44.1438C373.917 42.4307 372.519 41.4845 372.723 39.6067C373.04 36.7005 374.515 37.1915 373.262 34.0422C372.015 30.9073 372.501 30.2892 372.876 27.0398C372.98 26.1418 372.519 24.6951 373.146 23.9313C373.511 23.4851 374.848 23.4163 374.985 23.1908C375.495 22.3487 375.511 21.6569 375.614 20.1126C375.673 19.233 375.401 17.4736 376.316 16.8226C377.11 16.2572 378.237 17.308 378.933 16.9753C379.536 16.6866 380.059 15.248 381.05 15.0744C384.712 14.433 383.595 18.1621 385.465 13.5078C386.548 10.8119 387.38 9.70823 389.323 8.1752C390.168 8.56545 390.694 8.40788 390.904 7.70096C391.188 7.18993 391.473 6.6797 391.758 6.16948C393.273 5.81041 393.491 6.94683 394.664 5.83037C396.633 3.95664 394.608 -0.193157 398.585 0.917699C401.47 1.72303 402.171 5.4257 405.189 6.31503C405.605 5.10903 405.551 1.58383 407.304 1.22716C409.088 0.864088 410.446 4.11895 411.095 5.1818C411.517 4.2677 412.215 1.53028 412.911 0.860885C414.909 -1.06245 414.304 0.800925 416.072 1.05684C416.35 1.38233 416.628 1.70861 416.905 2.0349C417.831 1.58303 418.74 1.10645 419.637 0.601826C421.576 0.234745 420.885 0.435447 422.576 1.12C423.927 1.66782 423.119 2.29402 424.762 2.63867C425.955 2.88738 426.964 1.64785 428.292 2.02769C428.678 2.19647 429.065 2.36599 429.452 2.53471C429.999 3.74953 430.839 3.96465 431.971 3.17928C433.306 3.7303 435.108 5.94474 436.529 5.87197C439.246 5.73042 438.606 1.9869 441.586 2.17004C442.69 2.2372 445.546 5.21058 446.334 6.09349C447.438 7.33228 447.126 8.40228 448.51 9.79542C450.515 11.8131 449.338 10.7311 451.252 11.6444C454.105 13.0063 455.156 12.4913 456.331 15.7693C457.353 18.6204 457.926 22.1672 457.937 25.1877C457.943 27.0726 456.589 31.2296 459.202 30.3179C461.037 29.6781 460.729 25.1269 462.697 26.5544C464.194 27.6389 461.241 33.4377 461.207 34.798C461.108 38.7118 461.732 39.0253 459.309 41.95C458.16 43.3353 455.529 45.8877 454.946 47.6821C454.255 49.805 456.086 53.4813 456.509 55.3774C457.425 59.4925 456.652 60.362 453.936 63.5959C453.645 63.7703 453.354 63.9453 453.062 64.1197C451.612 64.1166 451.209 64.8407 451.854 66.2894C451.277 67.9057 451.346 69.4635 450.53 71.0879C450.083 71.9752 448.111 73.7727 448.01 74.6508C447.832 76.2167 448.609 76.4909 449.926 78.114C455.236 84.6588 457.667 93.1404 460.294 101.013C464.92 114.879 470.622 128.404 476.146 141.975C478.298 147.265 480.479 152.346 482.713 157.695C485.493 164.355 489.4 170.435 492.705 176.889C494.989 181.35 497.32 186.247 500.174 190.096C503.765 194.938 505.783 201.162 508.932 206.402C512.296 212.001 516.224 217.517 519.468 223.278C522.57 228.788 526.404 233.832 529.35 239.492C533.027 246.557 537.31 255.046 538.322 263.053C538.68 265.89 539.794 270.57 538.036 272.998C536.214 275.511 531.198 276.563 528.654 274.686C531.198 280.616 532.78 287.26 533.922 293.602C534.415 296.342 535.103 298.761 534.5 301.56C533.96 304.062 534.855 302.605 532.836 304.069C531.146 305.294 531.927 301.84 530.598 305.361C530.319 306.104 530.868 308.164 530.848 309.026C530.771 312.487 530.514 316.01 530.379 319.491C530.277 322.131 530.703 324.359 527.461 324.08C524.863 323.855 523.576 321.094 522.423 319.145C521.99 322.248 521.742 325.345 521.385 328.457C521.068 331.218 521.701 333.945 518.17 333.648C512.379 333.159 510.097 322.655 508.629 318.266C505.991 321.745 504.709 328.653 503.548 332.907C502.444 336.957 501.156 345.576 495.51 340.273C491.749 336.74 493.206 329.79 493.881 325.268C494.103 323.776 497.279 310.671 495.794 309.916C493.671 312.189 491.199 315.903 487.704 313.899C484.561 312.098 485.584 308.096 485.834 305.207C486.546 296.989 489.363 289.112 491.452 281.148C490.264 280.882 487.374 280.645 486.395 279.759C485.14 278.625 485.914 278.074 485.363 276.624C484.618 274.661 483.28 272.666 482.223 270.801C478.78 264.724 477.72 258.666 475.94 252.053C474.223 245.666 470.986 240.044 469.27 233.575C467.368 226.408 465.341 219.365 463.096 212.227C458.194 196.633 451.134 181.786 443.017 167.642C441.951 165.786 433.219 145.728 431.904 146.32C430.966 146.743 430.429 151.934 430.071 153.336C429.241 156.584 429.078 159.999 428.883 163.346C425.684 171.154 429.09 184.627 431.031 192.456Z" fill="#36392E"/>
<path fill-rule="evenodd" clip-rule="evenodd" d="M135.926 166.023C139.186 166.801 140.352 159.196 140.717 156.842C141.307 153.024 141.984 149.741 144.039 146.403C145.038 144.78 146.232 143.111 147.528 141.711C148.284 140.896 150.179 139.834 150.575 138.96C151.669 136.541 150.397 130.463 150.412 127.743C150.421 125.996 149.28 117.866 151.329 117.299C153.99 116.561 154.684 123.975 154.978 125.644C155.315 127.555 155.26 129.398 155.464 131.288C155.652 133.054 156.612 134.146 156.979 135.323C158.031 138.683 155.534 141.506 153.745 144.534C151.754 147.905 149.599 151.179 148.202 154.858C146.685 158.849 146.782 163.054 145.597 167.095C143.669 173.662 135.584 177.243 129.036 175.316C125.555 174.292 126.287 171.937 125.183 169.224C124.766 168.194 123.593 167.622 123.243 166.254C122.873 164.806 123.212 162.922 123.496 161.459C124.873 154.381 127.108 146.97 129.267 140.083C117.516 146.561 105.071 150.83 91.54 150.586C84.814 150.465 79.9141 149.021 75.0424 154.773C71.2666 159.231 71.2716 167.072 69.7306 172.616C68.0585 178.635 66.5501 186.344 62.743 191.38C58.1496 197.457 51.8786 196.457 51.4107 188.352C51.0111 181.443 54.4446 174.895 53.8684 167.881C53.579 164.352 52.1907 161.242 52.2757 157.668C52.3496 154.597 52.9517 151.712 53.5193 148.687C46.7982 149.503 41.5929 152.269 36.8179 156.907C32.3471 161.249 30.4829 166.611 26.7909 171.578C23.422 176.109 20.441 182.345 13.7912 182.19C5.30301 181.992 4.76869 171.531 7.95166 165.94C9.57858 163.082 11.8388 160.845 13.9068 158.328C16.1968 155.542 16.467 153.304 16.9392 149.745C17.2982 147.03 17.3967 143.444 19.8365 141.655C22.0307 140.043 24.7851 140.827 26.8149 138.691C28.7566 136.651 30.2896 133.56 32.0337 131.303C34.2119 128.485 36.4664 125.573 38.4039 122.582C42.5718 116.143 48.0493 111.662 53.8222 106.624C51.729 105.318 46.2091 106.762 43.6166 106.348C39.3569 105.668 33.8444 103.638 30.5439 100.719C23.6935 94.6566 20.401 86.7715 20.0637 77.6588C19.7392 68.9061 21.1109 58.3497 27.6084 51.8449C30.9194 48.5296 35.1594 45.6279 39.3433 43.5136C42.1292 42.1068 47.8664 39.0378 51.0875 40.3049C58.5245 43.2332 41.7044 54.8785 39.4868 56.7419C32.4204 62.678 28.3054 68.4076 28.4697 77.9029C28.6286 87.1356 37.5155 91.525 44.9482 94.5795C48.8034 96.1638 53.4602 97.4351 57.7667 97.3192C62.6469 97.1892 65.9665 94.383 70.4115 92.7371C79.1611 89.4982 88.1379 87.3205 97.1566 85.1385C106.038 82.9885 115.699 83.4741 124.794 82.0703C133.344 80.7504 141.334 79.123 149.416 76.0104C157.785 72.787 164.24 63.174 173.368 62.1628C179.029 61.5361 176.262 65.5477 173.816 67.6052C170.889 70.067 167.711 72.2115 164.783 74.6807C157.322 80.9704 149.508 84.6701 140.053 87.0678C133.184 88.8087 125.779 90.4373 118.48 91.4757C109.266 92.7876 99.991 92.3778 90.9391 94.7669C85.5799 96.1805 80.3752 97.9817 75.3188 100.28C73.2478 101.221 68.9641 102.728 68.5806 104.402C68.0831 106.569 69.8149 106.526 67.7273 108.521C64.2101 111.884 59.6358 114.262 56.0835 117.751C52.1267 121.638 48.3632 125.408 45.1582 129.965C41.9789 134.487 39.4406 138.869 34.7327 141.988C33.1721 143.021 30.5223 144.834 28.7486 145.31C27.1165 145.747 26.3704 145.077 24.9735 145.986C21.2568 148.403 23.4836 155.95 22.5029 159.687C21.2482 164.473 18.0357 168.066 16.0355 172.505C18.8342 171.899 20.7877 167.26 22.2264 165.072C23.8394 162.617 25.8815 160.964 27.9335 158.843C32.2486 154.384 33.3906 148.285 38.5196 144.087C47.8104 136.482 62.2529 137.139 70.0052 126.945C71.2605 125.293 72.4401 120.52 73.9466 119.482C76.7059 117.579 76.472 123.264 76.1881 124.951C75.2179 130.711 71.6687 137.519 67.0285 141.156C64.9285 142.802 61.9913 143.556 60.1689 145.693C59.7226 145.87 59.2775 146.048 58.8305 146.225C59.0971 147.174 59.2424 148.139 59.2639 149.12C59.3064 150.833 58.8915 152.503 58.8219 154.231C58.6489 158.579 59.6099 162.297 60.4798 166.463C61.1029 169.438 59.4271 175.64 60.7624 178.066C63.4005 169.204 66.5027 158.968 71.5012 151.092C72.682 149.229 75.0246 147.691 75.9548 145.773C76.3962 145.281 76.8383 144.79 77.2803 144.298C76.5058 143.58 75.8311 142.779 75.2561 141.895C72.2591 135.591 78.8256 139.489 81.4458 140.024C85.6575 140.885 90.9059 139.117 95.2794 138.984C99.5416 138.855 103.745 138.712 107.911 138.05C112.41 137.336 117.078 136.256 121.479 135.075C125.898 133.887 129.982 131.446 134.277 130.373C129.983 127.435 128.624 123.611 127.138 118.834C126.162 115.694 122.694 108.073 124.877 104.886C127.243 101.429 128.087 106.746 128.855 108.629C130.153 111.812 132.118 117.245 134.523 119.633C135.82 120.921 137.572 120.78 138.73 122.498C139.582 123.762 139.698 125.508 139.831 126.973C140.226 131.3 138.517 134.763 136.993 138.702C133.438 147.885 132.002 157.707 127.352 166.444C130.18 166.715 133.107 166.308 135.926 166.023Z" fill="#36392E"/>
<path fill-rule="evenodd" clip-rule="evenodd" d="M195.407 93.668C197.676 93.1338 204.816 92.3542 202.745 88.1905C200.648 83.9792 195.069 90.7897 195.407 93.668ZM263 60.5118C261.667 60.0977 259.553 59.1333 258.127 59.2356C256.436 59.357 255.18 60.5833 253.464 60.7454C249.964 61.0763 247.258 59.5813 244.971 63.3224C249.837 63.3224 259.57 64.9732 263 60.5118ZM171.201 147.755C175.832 148.401 178.132 127.93 178.377 125.249C176.301 125.036 170.702 129.118 170.213 130.999C169.678 133.065 171.524 136.38 171.749 138.527C172.081 141.706 171.728 144.624 171.201 147.755ZM197.005 30.9047C191.43 31.4482 185.192 33.2545 180.075 30.151C175.926 27.6357 174.389 22.3286 170.895 19.213C170.895 28.1984 178.967 35.2783 187.181 38.1292C191.364 39.5808 197.772 37.3915 201.467 39.7574C202.539 40.4431 204.824 43.5677 204.907 44.858C205.194 49.2572 202.061 45.3202 200.286 45.4564C197.82 45.6449 194.388 52.151 192.332 54.129C190.786 55.6172 189.041 56.825 187.294 58.1036C186.719 58.5257 183.761 60.0238 183.613 60.7478C183.483 61.3905 185.105 63.7519 185.447 64.3613C187.799 68.5559 190.632 71.5618 194.349 74.5209C196.181 75.9789 198.089 76.7904 199.925 78.0013C200.524 78.3981 202.96 81.7189 202.252 81.5791C203.276 78.4678 206.191 74.8635 208.13 72.1127C210.118 69.2917 212.738 66.3369 216.07 65.1951C217.534 64.6928 219.958 64.2621 221.482 64.1389C222.552 64.1013 223.612 64.1894 224.661 64.4026C226.189 65.0774 226.787 64.5345 226.454 62.7721C228.059 59.4359 227.113 55.2358 229.154 51.8472C231.549 47.8683 235.467 46.0658 239.956 46.5144C241.973 46.7159 244.146 47.5823 246.143 47.2286C248.122 46.8786 250.366 45.2801 252.303 44.5912C259.826 41.9138 269.11 38.66 275.008 33.0819C275.904 32.2362 278.431 29.8896 278.63 28.6739C278.104 27.4879 277.578 26.3033 277.052 25.118C276.914 23.3804 276.07 22.9064 274.519 23.6969C272.692 23.6586 269.228 25.7566 267.399 26.3569C265.077 27.1194 262.743 27.7899 260.459 28.6508C256.495 30.1446 252.635 31.6792 248.473 32.568C244.163 33.4871 242.112 34.0474 239.844 29.9607C237.626 25.966 237.941 23.6298 232.778 24.214C228.177 24.7335 224.32 26.4712 220.078 28.3046C217.26 29.522 213.591 31.7639 210.725 32.2443C208.602 32.6007 206.31 31.7727 204.264 31.3459C201.68 30.808 199.633 30.9023 197.005 30.9047ZM250.454 54.105H252.772C250.975 53.0482 249.178 51.9908 247.382 50.9346C244.852 55.0201 238.531 53.2435 234.698 55.6782C231.551 57.6778 228.596 66.1995 231.618 69.3034C235.818 73.6169 237.885 64.0452 239.078 61.8404C241.504 57.3525 245.159 53.9916 250.454 54.105ZM177 63.2528C175.12 59.7009 176.352 56.3055 179.143 54.4205C183.17 51.7024 187.222 48.7242 191.17 45.7127C184.46 44.659 179.65 42.4382 174.18 38.3418C167.868 33.615 166.071 29.247 166.248 21.2631C166.336 17.2556 165.777 5.86527 172.24 9.17184C177.579 11.9037 178.315 19.5431 184.059 22.1327C189.734 24.6904 196.418 22.0376 202.386 24.0294C204.084 24.5969 208.628 28.5884 210.008 28.5701C211.842 28.5445 216.447 24.489 218.18 23.5259C222.53 21.1105 228.156 18.755 233.001 18.0589C236.045 17.6217 237.035 17.3084 239.241 19.5535C241.71 22.0672 242.485 25.1748 243.366 28.4405C252.735 24.5793 262.2 20.9754 271.834 17.8271C274.893 16.8272 276.995 15.5484 279.605 13.937C283.342 11.6304 285.422 12.6982 286.101 17.4674C287.298 25.8693 282.168 31.2428 277.711 37.5314C275.252 40.9994 273.573 43.4494 269.577 45.2204C265.417 47.0635 260.409 46.4694 255.891 47.8547C257.05 49.2677 257.663 52.5583 258.683 53.5516C259.514 54.3589 263.488 54.2252 264.828 54.9301C268.845 57.0431 268.367 60.5704 265.878 64.0581C263.07 67.9921 258.92 68.7174 254.384 69.06C252.354 69.2128 250.544 69.2405 248.512 69.097C247.198 69.0039 242.62 67.5823 241.629 68.0038C240.456 68.5017 240.183 71.0935 239.649 72.2772C238.799 74.1586 237.855 76.0627 235.856 76.9322C234.127 77.6833 232.177 77.4806 230.605 76.4484C228.497 75.0669 229.075 73.4351 227.748 71.661C227.623 69.792 226.827 69.4383 225.36 70.5968C224.24 70.9894 223.121 71.3862 222.003 71.7861C219.693 72.6291 217.534 73.4419 215.5 74.8574C211.604 77.5675 209.245 82.1398 204.903 84.0458C207.736 88.8923 205.966 95.4865 201.199 98.0031C200.124 98.57 198.808 99.267 197.666 99.6342C196.815 99.9084 194.589 99.6866 194.014 100.162C193.181 100.852 192.723 107.381 192.14 108.836C190.136 113.837 185.879 116.326 183.359 120.863C180.901 125.29 181.43 132.161 180.714 137.148C179.828 143.325 179.266 149.809 176.623 155.54C174.855 159.375 169.551 163.921 164.869 163.165C157.984 162.054 160.977 153.249 163.089 149.455C166.346 143.603 166.342 139.175 165.516 132.702C162.798 133.106 156.062 135.768 156.386 130.583C156.608 127.047 164.235 123.805 166.908 122.029C172.951 118.015 179.135 113.344 184.237 108.201C186.346 106.075 189.365 102.149 190.438 99.2411C191.22 97.1194 191.053 95.0557 191.222 92.8367C191.379 90.7946 193.169 87.9902 193.08 86.205C192.949 83.5577 185.985 79.328 183.994 76.5255C181.157 72.5324 178.772 67.8103 177 63.2528Z" fill="#36392E"/>
<path fill-rule="evenodd" clip-rule="evenodd" d="M316.483 72.1414C318.618 71.8623 326.82 69.5872 328.229 71.7169C330.799 75.6015 323.244 76.3249 321.344 76.6774C312.949 78.2309 304.736 80.2977 296.595 82.6128C280.401 87.2166 263.89 92.9949 248.807 100.495C246.444 101.67 239.504 106.45 237.139 104.035C234.085 100.916 241.495 97.4557 243.192 96.4839C250.716 92.1759 258.665 88.3116 266.74 85.1393C282.645 78.8915 299.449 74.0215 316.483 72.1414Z" fill="#36392E"/>
<path fill-rule="evenodd" clip-rule="evenodd" d="M114.068 277.21C126.115 275.411 139.204 278.065 150.895 281.726C154.641 282.899 158.545 284.261 161.974 286.173C163.821 287.201 168.214 289.033 169.259 290.958C171.002 294.168 169.051 295.536 166.245 295.008C163.576 294.506 160.298 292.971 157.513 292.269C144.761 289.056 132.085 286.646 119.169 285.36C116.079 285.052 113.835 285.411 110.857 285.954C108.63 286.36 102.753 288.782 101.079 287.362C95.0313 282.232 111.189 277.528 114.068 277.21Z" fill="#36392E"/>
<path fill-rule="evenodd" clip-rule="evenodd" d="M301.506 301.897C302.322 306.471 299.998 306.898 296.115 309.036C292.149 311.22 288.187 313.014 283.998 314.776C279.484 316.675 274.755 318.623 270.053 320.009C266.07 321.183 259.929 323.816 255.793 323.426C254.124 323.268 253.045 323.486 253.032 321.416C253.021 319.171 255.13 319.306 256.87 318.81C262.197 317.293 267.354 315.014 272.592 313.207C282.457 309.806 292.338 306.934 301.506 301.897Z" fill="#36392E"/>
<path fill-rule="evenodd" clip-rule="evenodd" d="M2.67766 78.1972C-0.411798 73.0925 -0.349676 66.2876 0.505215 60.5198C0.793278 58.5756 5.47985 44.2023 8.31147 47.1904C9.9909 48.9626 4.27404 60.2505 3.67538 62.83C2.95328 65.94 2.58217 69.0162 3.05813 72.1952C3.18778 73.0543 5.11101 78.5084 2.67766 78.1972Z" fill="#36392E"/>
<path fill-rule="evenodd" clip-rule="evenodd" d="M164.585 107.172C162.322 104.075 165.351 97.146 166.267 93.8535C166.832 91.8249 168.558 84.2042 171.293 85.831C173.949 87.4097 170.976 94.5523 170.444 96.5248C169.656 99.4506 168.509 107.098 164.585 107.172Z" fill="#36392E"/>
<path fill-rule="evenodd" clip-rule="evenodd" d="M415.563 272.208C415.979 271.218 416.395 270.228 416.811 269.237C417.867 270.041 419.342 270.436 418.267 271.655C417.606 272.405 416.493 272.403 415.563 272.208Z" fill="#36392E"/>
<path fill-rule="evenodd" clip-rule="evenodd" d="M377.393 78.9971C375.541 79.2811 374.304 79.2965 372.468 79.2534C374.11 79.1678 375.752 79.0827 377.393 78.9971Z" fill="#36392E"/>
<path fill-rule="evenodd" clip-rule="evenodd" d="M437.426 223.021C437.421 221.789 437.416 220.556 437.412 219.324C437.416 220.557 437.421 221.789 437.426 223.021Z" fill="#36392E"/>
<path fill-rule="evenodd" clip-rule="evenodd" d="M139.451 130.588C139.446 129.355 139.443 128.122 139.439 126.891C139.444 128.125 139.447 129.357 139.451 130.588Z" fill="#36392E"/>
<path fill-rule="evenodd" clip-rule="evenodd" d="M197.008 22.5989C195.777 22.5909 194.545 22.5841 193.314 22.5761C194.551 22.0751 195.78 22.3161 197.008 22.5989Z" fill="#36392E"/>
<path fill-rule="evenodd" clip-rule="evenodd" d="M205.343 402.341C205.328 403.163 205.312 403.985 205.295 404.806C205.31 403.982 205.326 403.161 205.343 402.341Z" fill="#36392E"/>
<path fill-rule="evenodd" clip-rule="evenodd" d="M49.8677 106.854C50.4858 106.86 51.1027 106.866 51.7146 106.874C51.0953 106.868 50.4815 106.861 49.8677 106.854Z" fill="#36392E"/>
<path fill-rule="evenodd" clip-rule="evenodd" d="M397.418 324.697C397.407 323.874 397.398 323.051 397.387 322.232C397.397 323.056 397.406 323.877 397.418 324.697Z" fill="#36392E"/>
<path fill-rule="evenodd" clip-rule="evenodd" d="M428.742 163.248C428.78 162.425 428.82 161.603 428.858 160.783C428.819 161.607 428.78 162.427 428.742 163.248Z" fill="#36392E"/>
<path fill-rule="evenodd" clip-rule="evenodd" d="M372.843 38.772C372.799 39.5943 372.755 40.4174 372.709 41.2368C372.753 40.4138 372.798 39.5936 372.843 38.772Z" fill="#36392E"/>
<path fill-rule="evenodd" clip-rule="evenodd" d="M530.986 309.292C530.994 308.468 531.002 307.646 531.01 306.827C531.002 307.65 530.994 308.471 530.986 309.292Z" fill="#36392E"/>
<path fill-rule="evenodd" clip-rule="evenodd" d="M286.004 25.2154C285.981 24.3923 285.959 23.5691 285.935 22.7505C285.957 23.5745 285.981 24.3949 286.004 25.2154Z" fill="#36392E"/>
<path fill-rule="evenodd" clip-rule="evenodd" d="M28.5757 78.21C28.6108 77.3873 28.6453 76.5647 28.6803 75.7451C28.6446 76.569 28.6108 77.3898 28.5757 78.21Z" fill="#36392E"/>
<path fill-rule="evenodd" clip-rule="evenodd" d="M250.569 69.2791C251.187 69.2761 251.804 69.2736 252.416 69.2705C251.796 69.2736 251.183 69.2761 250.569 69.2791Z" fill="#36392E"/>
<path fill-rule="evenodd" clip-rule="evenodd" d="M457.797 27.6802C457.756 26.8572 457.715 26.0358 457.675 25.2153C457.715 26.0384 457.757 26.8588 457.797 27.6802Z" fill="#36392E"/>
<path fill-rule="evenodd" clip-rule="evenodd" d="M52.021 155.237C52.0222 156.061 52.0235 156.883 52.0235 157.702C52.0222 156.878 52.0216 156.058 52.021 155.237Z" fill="#36392E"/>
<path fill-rule="evenodd" clip-rule="evenodd" d="M534.767 298.2C534.717 297.378 534.667 296.556 534.617 295.735C534.667 296.558 534.718 297.378 534.767 298.2Z" fill="#36392E"/>
<path fill-rule="evenodd" clip-rule="evenodd" d="M228.406 291.759C229.024 291.74 229.641 291.72 230.253 291.7C229.633 291.721 229.02 291.741 228.406 291.759Z" fill="#36392E"/>
<path fill-rule="evenodd" clip-rule="evenodd" d="M428.873 179.886C428.824 179.063 428.776 178.241 428.728 177.421C428.776 178.244 428.824 179.065 428.873 179.886Z" fill="#36392E"/>
<path fill-rule="evenodd" clip-rule="evenodd" d="M133.596 276.932C132.775 276.938 131.954 276.943 131.133 276.948C131.955 276.943 132.775 276.938 133.596 276.932Z" fill="#36392E"/>
<path fill-rule="evenodd" clip-rule="evenodd" d="M113.895 276.824C113.074 276.901 112.253 276.979 111.433 277.056C112.254 276.978 113.075 276.901 113.895 276.824Z" fill="#36392E"/>
<path fill-rule="evenodd" clip-rule="evenodd" d="M428.211 174.34C428.194 173.723 428.174 173.106 428.157 172.491C428.176 173.108 428.194 173.724 428.211 174.34Z" fill="#36392E"/>
<path fill-rule="evenodd" clip-rule="evenodd" d="M455.941 54.1778C455.906 53.5603 455.872 52.9441 455.837 52.3291C455.872 52.9466 455.906 53.5622 455.941 54.1778Z" fill="#36392E"/>
<path fill-rule="evenodd" clip-rule="evenodd" d="M267.493 59.7237C267.498 59.1068 267.503 58.4912 267.507 57.875C267.503 58.4925 267.498 59.1074 267.493 59.7237Z" fill="#36392E"/>
<path fill-rule="evenodd" clip-rule="evenodd" d="M181.831 229.32C182.17 229.339 182.508 229.359 182.848 229.378C182.089 230.033 181.201 229.36 181.831 229.32Z" fill="#36392E"/>
<path fill-rule="evenodd" clip-rule="evenodd" d="M219.171 291.124C219.584 291.116 219.995 291.109 220.403 291.102C219.989 291.11 219.58 291.116 219.171 291.124Z" fill="#36392E"/>
<path fill-rule="evenodd" clip-rule="evenodd" d="M534.146 293.27C534.1 292.653 534.053 292.037 534.007 291.421C534.054 292.039 534.1 292.654 534.146 293.27Z" fill="#36392E"/>
<path fill-rule="evenodd" clip-rule="evenodd" d="M53.9474 171.875C53.8951 172.492 53.8427 173.109 53.791 173.724C53.8433 173.106 53.8957 172.49 53.9474 171.875Z" fill="#36392E"/>
<path fill-rule="evenodd" clip-rule="evenodd" d="M336.145 92.5283C335.408 93.0773 334.519 92.7705 333.682 92.7514C334.503 92.6768 335.325 92.6029 336.145 92.5283Z" fill="#36392E"/>
<path fill-rule="evenodd" clip-rule="evenodd" d="M530.368 317.303C530.378 316.685 530.388 316.068 530.397 315.454C530.387 316.072 530.378 316.688 530.368 317.303Z" fill="#36392E"/>
<path fill-rule="evenodd" clip-rule="evenodd" d="M391.173 340.103C391.221 339.485 391.269 338.868 391.318 338.254C391.269 338.873 391.221 339.488 391.173 340.103Z" fill="#36392E"/>
<path fill-rule="evenodd" clip-rule="evenodd" d="M43.0957 106.212C43.5082 106.236 43.9201 106.259 44.327 106.284C43.9139 106.261 43.5045 106.236 43.0957 106.212Z" fill="#36392E"/>
<path fill-rule="evenodd" clip-rule="evenodd" d="M316.444 72.2563C315.623 72.3229 314.803 72.3895 313.981 72.456C314.803 72.3895 315.623 72.3229 316.444 72.2563Z" fill="#36392E"/>
<path fill-rule="evenodd" clip-rule="evenodd" d="M257.116 399.259C257.061 399.875 257.006 400.493 256.951 401.108C257.006 400.489 257.061 399.874 257.116 399.259Z" fill="#36392E"/>
<path fill-rule="evenodd" clip-rule="evenodd" d="M136.058 165.929C135.238 165.99 134.417 166.051 133.596 166.114C134.417 166.051 135.238 165.99 136.058 165.929Z" fill="#36392E"/>
<path fill-rule="evenodd" clip-rule="evenodd" d="M239.488 375.017C241.129 374.951 242.77 374.886 244.413 374.821C242.772 374.886 241.129 374.951 239.488 375.017Z" fill="#36392E"/>
<path fill-rule="evenodd" clip-rule="evenodd" d="M389.337 317.303C389.378 316.275 389.419 315.247 389.459 314.222C389.419 315.25 389.378 316.277 389.337 317.303Z" fill="#36392E"/>
<path fill-rule="evenodd" clip-rule="evenodd" d="M422.335 39.192C423.361 39.1174 424.387 39.0428 425.414 38.9683C424.388 39.0428 423.361 39.1174 422.335 39.192Z" fill="#36392E"/>
<path fill-rule="evenodd" clip-rule="evenodd" d="M129.287 248.496C130.313 248.561 131.339 248.627 132.365 248.693C131.339 248.627 130.312 248.561 129.287 248.496Z" fill="#36392E"/>
<path fill-rule="evenodd" clip-rule="evenodd" d="M202.272 224.87C201.838 223.946 201.862 223.124 202.342 222.405C202.599 223.245 202.576 224.065 202.272 224.87Z" fill="#36392E"/>
<path fill-rule="evenodd" clip-rule="evenodd" d="M497.123 283.411C497.132 284.235 497.141 285.057 497.151 285.876C497.143 285.051 497.133 284.231 497.123 283.411Z" fill="#36392E"/>
<path fill-rule="evenodd" clip-rule="evenodd" d="M250.276 364.135C250.266 363.312 250.257 362.489 250.248 361.67C250.257 362.496 250.267 363.316 250.276 364.135Z" fill="#36392E"/>
<path fill-rule="evenodd" clip-rule="evenodd" d="M221.018 281.767C221.839 281.836 222.66 281.905 223.481 281.974C222.659 281.905 221.839 281.835 221.018 281.767Z" fill="#36392E"/>
<path fill-rule="evenodd" clip-rule="evenodd" d="M205.667 227.901C205.539 226.91 205.718 226.543 206.203 226.796C206.331 227.727 206.152 228.095 205.667 227.901Z" fill="#36392E"/>
<path fill-rule="evenodd" clip-rule="evenodd" d="M236.114 186.048C236.106 186.665 236.098 187.282 236.09 187.897C236.098 187.28 236.106 186.664 236.114 186.048Z" fill="#36392E"/>
<path fill-rule="evenodd" clip-rule="evenodd" d="M518.693 303.129C518.688 302.513 518.682 301.896 518.678 301.281C518.682 301.898 518.687 302.513 518.693 303.129Z" fill="#36392E"/>
<path fill-rule="evenodd" clip-rule="evenodd" d="M430.339 39.0824C431.16 39.0812 431.981 39.08 432.802 39.0781C431.98 39.0794 431.16 39.0812 430.339 39.0824Z" fill="#36392E"/>
<path fill-rule="evenodd" clip-rule="evenodd" d="M410.023 114.358L412.486 114.16L410.023 114.358Z" fill="#36392E"/>
<path fill-rule="evenodd" clip-rule="evenodd" d="M371.237 217.793C370.825 217.786 370.412 217.78 370.005 217.773C370.419 217.78 370.828 217.787 371.237 217.793Z" fill="#36392E"/>
<path fill-rule="evenodd" clip-rule="evenodd" d="M385.648 335.173C385.686 334.557 385.723 333.939 385.761 333.324C385.723 333.942 385.686 334.558 385.648 335.173Z" fill="#36392E"/>
<path fill-rule="evenodd" clip-rule="evenodd" d="M290.587 344.701C290.174 344.716 289.762 344.732 289.355 344.748C289.769 344.732 290.178 344.715 290.587 344.701Z" fill="#36392E"/>
<path fill-rule="evenodd" clip-rule="evenodd" d="M236.095 188.513C236.099 189.13 236.103 189.749 236.108 190.362C236.105 189.743 236.1 189.128 236.095 188.513Z" fill="#36392E"/>
<path fill-rule="evenodd" clip-rule="evenodd" d="M198.855 30.4526C198.237 30.4533 197.62 30.4539 197.008 30.4539C197.628 30.4539 198.242 30.4533 198.855 30.4526Z" fill="#36392E"/>
<path fill-rule="evenodd" clip-rule="evenodd" d="M201.782 79.4424C202.653 80.0087 202.782 80.6255 202.169 81.291C201.181 81.2134 201.054 80.5978 201.782 79.4424Z" fill="#36392E"/>
<path fill-rule="evenodd" clip-rule="evenodd" d="M248.107 53.8511C248.928 53.8634 249.749 53.8757 250.57 53.888C249.749 53.8757 248.927 53.8634 248.107 53.8511Z" fill="#36392E"/>
<path fill-rule="evenodd" clip-rule="evenodd" d="M230.564 64.0371C230.562 64.6539 230.56 65.2708 230.558 65.8858C230.56 65.2671 230.562 64.6527 230.564 64.0371Z" fill="#36392E"/>
<path fill-rule="evenodd" clip-rule="evenodd" d="M215.478 65.0699L217.94 64.853L215.478 65.0699Z" fill="#36392E"/>
<path fill-rule="evenodd" clip-rule="evenodd" d="M326.81 178.287C320.778 178.95 313.107 178.374 307.658 175.436C303.88 173.397 302.129 166.719 307.615 165.78C310.696 165.253 314.392 167.968 317.115 169.018C320.356 170.265 323.739 170.853 327.076 171.727C329.342 172.321 332.632 173.82 330.564 177.061C330.191 177.646 326.853 179.41 326.81 178.287Z" fill="#36392E"/>
<path fill-rule="evenodd" clip-rule="evenodd" d="M411.87 207.991C411.279 211.867 411.19 216.148 409.332 219.691C406.653 224.798 406.125 219.326 406.547 216.521C407.17 212.384 407.507 208.148 407.197 203.966C406.943 200.54 404.64 196.527 406.326 193.443C410.928 196.428 411.023 203.1 411.87 207.991Z" fill="#36392E"/>
<path fill-rule="evenodd" clip-rule="evenodd" d="M412.08 87.4388C409.533 86.8553 405.368 85.1705 408.957 82.7938C410.415 81.8276 413.288 82.291 414.916 81.3863C415.903 80.8385 416.462 79.6653 417.45 79.2401C420.726 77.8295 421.062 80.2377 419.829 83.3009C418.525 86.5404 415.393 87.596 412.08 87.4388Z" fill="#36392E"/>
<path fill-rule="evenodd" clip-rule="evenodd" d="M410.606 67.0436C414.791 63.9132 414.222 67.8243 412.01 70.5794C411.188 71.5081 410.364 72.4361 409.54 73.3629L410.262 74.249C410.138 75.5092 411.315 76.4415 409.872 77.2666C407.491 78.6297 405.702 75.4081 405.713 73.6242C405.73 70.6645 408.643 68.8084 410.606 67.0436Z" fill="#36392E"/>
<path fill-rule="evenodd" clip-rule="evenodd" d="M410.067 67.2957C406.161 71.1285 406.307 63.4117 408.384 61.7479C412.369 58.5546 409.801 65.9628 410.067 67.2957Z" fill="#36392E"/>
<path fill-rule="evenodd" clip-rule="evenodd" d="M417.535 70.1951C417.257 68.8357 417.221 62.3968 419.926 62.8251C422.868 63.291 419.628 70.3978 417.535 70.1951Z" fill="#36392E"/>
<path fill-rule="evenodd" clip-rule="evenodd" d="M412.485 87.7358C412.898 87.7531 413.31 87.771 413.717 87.7876C413.303 87.771 412.894 87.7531 412.485 87.7358Z" fill="#36392E"/>
<path fill-rule="evenodd" clip-rule="evenodd" d="M224.92 39.3883C221.588 33.7074 229.192 24.0072 232.999 31.8582C233.516 32.9215 234.685 35.7873 233.278 36.669C231.768 37.6152 232.091 36.24 230.849 36.0329C229.368 35.7857 229.852 35.094 228.131 35.8455C226.908 36.3792 225.765 38.4084 224.92 39.3883Z" fill="#36392E"/>
</svg>
